<?xml version="1.0" encoding="utf-8" ?>
<svg xmlns="http://www.w3.org/2000/svg" xmlns:xlink="http://www.w3.org/1999/xlink" width="282" height="212">
	<path fill="#D0465B" transform="matrix(0.275391 0 0 0.276042 -0.00012207 -3.05176e-05)" d="M780.311 386.437C782.847 385.299 785.495 384.002 788.332 384.121C787.637 387.113 784.644 388.541 782.561 390.586C782.326 388.69 781.633 387.779 780.311 386.437Z"/>
	<path fill="#D0465B" transform="matrix(0.275391 0 0 0.276042 -0.00012207 -3.05176e-05)" d="M782.716 391.379C784.304 393.38 784.446 397.089 784.125 399.547C783.937 400.989 783.624 402.138 782.791 403.33L781.519 404.061C780.773 402.018 774.906 398.878 772.921 397.606L780.478 396.353C781.798 394.937 782.168 393.189 782.716 391.379Z"/>
	<defs>
		<linearGradient id="gradient_0" gradientUnits="userSpaceOnUse" x1="520.68634" y1="485.06421" x2="379.28152" y2="433.2522">
			<stop offset="0" stop-color="#142969"/>
			<stop offset="1" stop-color="#1E56B4"/>
		</linearGradient>
	</defs>
	<path fill="url(#gradient_0)" transform="matrix(0.275391 0 0 0.276042 -0.00012207 -3.05176e-05)" d="M463.614 323.706C465.124 323.381 465.266 323.206 466.703 323.929C468.329 326.108 468.214 328.528 469.2 330.917C470.355 332.262 470.413 332.805 472.23 332.978C473.047 332.488 473.653 332.016 474.324 331.339C475.403 332.257 475.413 332.844 475.522 334.277C475.948 339.9 472.257 349.823 475.544 354.609L475.523 358.403C473.758 366.828 473.102 375.189 474.32 383.766C477.895 408.933 492.583 443.01 502.749 467.07C506.074 474.937 509.055 483.44 513.519 490.75C513.396 497.539 511.759 504.594 512.494 511.34C506.539 525.472 500.56 538.377 490.517 550.149C475.714 567.502 459.772 577.318 437.892 583.537C429.917 585.803 421.904 587.561 413.626 588.205C413.597 580.547 413.553 572.753 411.226 565.383C406.822 551.43 397.654 538.919 390.607 526.202C380.55 508.055 371.409 489.519 364.111 470.079C370.332 464.539 375.096 457.552 380.242 451.046C400.699 425.176 405.808 413.765 410.685 381.453Q413.518 380.861 416.26 379.937C434 374.045 441.897 357.699 451.241 343.088C455.446 336.513 460.067 330.732 463.614 323.706Z"/>
	<path fill="#172866" transform="matrix(0.275391 0 0 0.276042 -0.00012207 -3.05176e-05)" d="M488.472 493.902C489.718 494.766 490.661 498.164 490.977 499.72L489.653 500.087Q488.752 499.561 487.866 499.01C486.566 498.192 485.675 497.664 485.33 496.15C485.962 494.85 487.233 494.48 488.472 493.902Z"/>
	<path fill="#020931" transform="matrix(0.275391 0 0 0.276042 -0.00012207 -3.05176e-05)" d="M505.679 481.801C506.368 483.695 505.894 490.126 506.064 492.508C504.815 492.91 503.557 493.324 502.285 493.644C500.208 494.165 499.406 493.492 497.71 492.456L497.106 491.927L497.435 491.588C498.87 492.17 500.121 492.64 501.66 492.844C505.377 489.666 502.87 485.37 505.679 481.801Z"/>
	<path fill="#020931" transform="matrix(0.275391 0 0 0.276042 -0.00012207 -3.05176e-05)" d="M487.233 505.373C488.336 507.497 489.43 509.432 490.906 511.323C490.52 511.552 490.137 511.767 489.738 511.976C488.534 512.611 487.89 513.09 487.056 514.157C486.73 514.573 486.426 514.78 485.957 515.015C484.55 515.038 483.011 514.908 481.698 515.465C481.166 516.683 481.445 517.952 481.571 519.236L481.024 519.827L480.585 519.633L480.014 516.416C481.324 512.156 484.733 513.431 486.781 510.228C486.671 509.814 486.56 509.399 486.47 508.98C486.104 507.278 486.33 506.771 487.233 505.373Z"/>
	<path fill="#172866" transform="matrix(0.275391 0 0 0.276042 -0.00012207 -3.05176e-05)" d="M460.299 530.036C461.115 529.231 464.554 526.232 464.384 525.202C464.204 524.108 463.466 523.904 463.591 522.592C463.972 522.769 464.356 522.949 464.75 523.096C466.28 523.668 467.016 523.566 468.447 522.884C469.733 521.16 471.856 515.872 471.948 513.702C471.409 513.527 470.866 513.354 470.336 513.154C468.76 512.558 468.331 512.059 467.687 510.587C467.733 509.317 467.874 508.574 468.462 507.442C469.448 507.526 470.017 507.625 470.938 507.183L471.482 504.479L472.249 504.022C473.339 504.402 474.415 504.737 475.534 505.024L476.356 504.362Q475.659 502.493 475.058 500.592C476.378 498.126 476.986 493.92 478.919 492.027C480.322 491.87 480.993 491.962 482.278 492.559L482.316 493.267L480.927 493.92C482.093 494.236 482.332 494.108 482.972 495.183L482.873 497.549C482.294 498.527 481.604 499.174 481.78 500.326C483.52 500.097 485.055 499.759 486.754 500.361L487.753 501.401C487.625 502.908 486.721 503.944 487.233 505.373C486.33 506.771 486.104 507.278 486.47 508.98C486.56 509.399 486.671 509.814 486.781 510.228C484.733 513.431 481.324 512.156 480.014 516.416C476.095 520.219 480.778 520.212 479.868 524.671C477.835 525.873 474.972 523.736 472.463 525.144C471.891 525.965 471.557 526.599 471.387 527.601C471.078 529.422 471.492 530.518 472.522 532.013C473.262 533.089 474.206 534.346 474.162 535.712C474.081 538.218 471.091 540.159 469.336 541.618C469.285 541.576 469.236 541.531 469.183 541.492C465.125 538.509 463.47 533.915 460.299 530.036Z"/>
	<path fill="#1C3880" transform="matrix(0.275391 0 0 0.276042 -0.00012207 -3.05176e-05)" d="M482.873 497.549C482.559 497.351 482.247 497.149 481.946 496.93C480.89 496.161 480.062 495.792 479.832 494.492L480.927 493.92C482.093 494.236 482.332 494.108 482.972 495.183L482.873 497.549Z"/>
	<path fill="#E4475A" transform="matrix(0.275391 0 0 0.276042 -0.00012207 -3.05176e-05)" d="M509.446 129.11C532.992 100.56 562.006 81.2251 599.595 77.6036C654.079 72.3543 717.415 83.5799 760.499 119.337C763.07 121.47 768.482 125.897 768.562 129.534C768.564 129.656 768.54 129.776 768.529 129.896C765.184 129.801 761.442 126.638 759.035 124.517C757.204 125.605 755.229 126.537 753.969 128.299C753.698 129.767 753.726 129.689 754.524 130.961C740.847 136.646 735.967 146.694 727.714 157.913C723.851 163.165 713.411 175.184 708.513 179.15C703.943 184.404 698.828 191.672 693.098 195.52C689.983 199.371 684.933 202.696 681.046 205.807C679.207 206.851 676.818 208.189 675.37 209.732C667.397 215.131 659.368 219.813 650.797 224.209L646.619 226.259C636.707 230.246 626.782 235.204 616.45 237.886C594.89 244.128 565.842 247.142 553.923 269.012C553.325 270.108 552.777 271.206 552.315 272.368L551.044 276.56C549.213 278.637 546.654 281.92 543.912 282.787C543.859 282.067 543.671 281.545 543.44 280.867L542.829 280.883C541.977 281.85 541.267 282.661 540.142 283.308L539.422 282.539C539.362 282.048 539.262 281.495 539.351 280.998C539.555 279.852 539.867 279.125 540.819 278.517C541.001 277.536 541.278 276.552 541.001 275.568C540.488 273.748 538.283 275.411 537.131 274.669C536.805 267.574 539.996 259.516 541.174 252.466C544.204 234.326 541.992 215.053 538.454 197.148C537.595 192.798 535.428 186.463 536.017 182.143C534.438 179.147 533.632 175.895 532.231 172.821C531.359 170.906 530.574 170.555 528.698 169.861C529.298 169.151 529.726 168.492 530.157 167.67C530.086 163.034 527.426 156.804 525.546 152.557C524.622 150.469 523.274 147.292 521.027 146.433C520.932 145.819 520.913 145.585 520.751 144.98C520.018 142.238 516.083 139.132 513.628 137.888C512.439 134.866 511.282 132.051 509.439 129.358L509.446 129.11Z"/>
	<path fill="#D0465B" transform="matrix(0.275391 0 0 0.276042 -0.00012207 -3.05176e-05)" d="M681.601 154.646L683.536 155.408C685.498 157.476 686.409 159.763 687.12 162.472C686.156 162.427 685.403 162.28 684.607 161.718C682.241 160.045 681.956 157.286 681.601 154.646Z"/>
	<path fill="#D0465B" transform="matrix(0.275391 0 0 0.276042 -0.00012207 -3.05176e-05)" d="M531.455 133.883L531.891 134.33C531.418 137.741 525.098 144.408 522.373 146.606C521.915 145.919 521.814 145.542 521.625 144.757C523.033 140.509 528.214 136.825 531.455 133.883Z"/>
	<path fill="#D0465B" transform="matrix(0.275391 0 0 0.276042 -0.00012207 -3.05176e-05)" d="M685.042 176.951L686.076 177.417C686.065 179.367 684.427 180.405 684.1 182.345L685.815 184.187L685.599 185.069L683.286 186.124C682.452 185.843 681.725 185.544 681.015 185.013C679.814 184.116 679.394 183.551 679.233 182.094C680.451 179.86 683.024 178.459 685.042 176.951Z"/>
	<path fill="#D0465B" transform="matrix(0.275391 0 0 0.276042 -0.00012207 -3.05176e-05)" d="M652.077 200.804C652.719 201.099 652.811 201.529 653.168 202.121C652.724 203.528 651.571 204.178 650.465 205.114C650.364 205.863 651.815 211.018 652.266 211.624C652.331 211.71 652.416 211.779 652.491 211.857L651.794 212.756C650.968 212.405 649.836 211.964 649.248 211.239C648.376 210.163 646.814 206.501 646.984 205.102C647.209 203.243 650.346 202.111 651.772 201.036L652.077 200.804Z"/>
	<path fill="#E84D1A" transform="matrix(0.275391 0 0 0.276042 -0.00012207 -3.05176e-05)" d="M540.819 278.517C544.059 279.328 547.745 272.858 552.315 272.368L551.044 276.56C549.213 278.637 546.654 281.92 543.912 282.787C543.859 282.067 543.671 281.545 543.44 280.867L542.829 280.883C541.977 281.85 541.267 282.661 540.142 283.308L539.422 282.539C539.362 282.048 539.262 281.495 539.351 280.998C539.555 279.852 539.867 279.125 540.819 278.517Z"/>
	<path fill="#D0465B" transform="matrix(0.275391 0 0 0.276042 -0.00012207 -3.05176e-05)" d="M704.367 166.689C706.547 166.12 708.527 165.216 710.807 165.409L711.912 166.085L711.703 166.621L708.486 166.213C708.138 167.187 708.542 167.626 708.899 168.556C709.497 169.373 709.355 169.524 709.381 170.496C708.647 171.978 707.722 173.248 706.368 174.235C705.463 174.895 704.803 175.301 703.712 175.125Q703.149 173.743 702.672 172.328L701.961 172.414C701.628 173.547 701.381 174.293 700.564 175.195L699.552 175.018C699.056 173.869 699.018 173.189 699.345 171.944C699.99 169.499 702.266 167.823 704.367 166.689Z"/>
	<path fill="#D0465B" transform="matrix(0.275391 0 0 0.276042 -0.00012207 -3.05176e-05)" d="M676.061 176.523C675.918 176.324 675.777 176.124 675.632 175.928C674.604 174.532 673.219 173.763 672.481 172.14C673.824 171.487 674.046 172.533 675.236 171.32L675.168 170.225C674.356 169.536 673.56 168.922 672.679 168.326C673.025 167.419 673.215 167.32 674.121 166.902C677.327 165.422 680.765 166.259 684.038 164.831L684.735 165.29C684.657 167.018 684.062 168.146 683.289 169.653C681.776 170.751 680.499 169.147 679.104 170.157C679.566 172.404 681.667 173.754 683.436 175.008L684.241 174.859L684.746 172.876L685.498 172.464C686.647 173.185 686.306 174.172 687.527 174.527L688.497 172.526L689.308 172.264C690.731 173.104 690.424 174.987 691.752 174.7C692.249 173.934 692.637 173.648 692.418 172.692C692.151 171.531 691.177 170.227 690.564 169.204L690.979 168.784C692.732 169.023 694.176 169.217 695.334 170.676C696.633 172.313 696.831 174.893 697.188 176.901C699.549 177.14 701.74 175.041 703.767 175.78C703.992 177.039 703.541 177.705 702.968 178.77L703.312 179.486C705.199 179.8 706.663 179.246 708.513 179.15C703.943 184.404 698.828 191.672 693.098 195.52C695.131 191.145 702.682 184.658 706.079 180.507L705.861 180.138C704.755 180.443 704.078 180.612 702.923 180.321C702.31 178.945 702.584 178.203 702.765 176.729C702.103 176.406 698.214 177.488 697.062 177.497C695.137 175.774 696.265 172.686 694.477 170.58C693.593 170.219 693.35 169.933 692.393 170.154C692.565 170.505 692.742 170.854 692.901 171.211C693.54 172.651 693.779 173.221 693.209 174.69C692.228 175.326 691.654 175.677 690.437 175.711L689.782 173.636L688.612 173.396L689.18 173.101C688.683 173.85 688.245 174.602 687.813 175.389L686.642 175.488C686.357 174.987 686.112 174.515 685.896 173.979C685.832 173.82 685.773 173.66 685.711 173.501C683.072 177.624 681.636 174.02 676.179 176.024C676.747 177.329 677.115 177.673 676.759 179.086C675.195 179.732 673.076 178.944 671.468 178.587C672.962 180.993 674.846 180.16 675.122 183.611C674.997 183.397 675.131 182.784 675.154 182.53L675.6 183.833L677.381 184.033C677.964 185.338 678.502 186.599 678.912 187.969L678.309 188.86C677.222 189.036 676.49 188.979 675.423 188.808C673.127 190.309 668.092 193.16 667.544 195.931C667.316 197.083 667.444 198.187 667.007 199.305C673.537 199.984 670.546 196.788 675.414 195.36C675.631 193.972 674.785 192.685 674.544 191.261C677.301 189.771 678.737 192.044 681.258 192.082C682.945 192.107 682.373 189.264 683.551 187.977C684.491 187.797 685.461 187.463 686.376 187.854C687.131 188.944 686.85 189.525 686.745 190.818C687.235 190.736 687.76 190.625 688.261 190.629C689.499 190.641 690.659 190.9 691.458 191.936C692.023 192.67 692.224 193.522 692.143 194.407L691.305 194.133C690.899 193.306 690.532 192.664 689.94 191.945C686.452 191.327 686.122 194.552 683.441 195.997C682.639 195.186 682.799 194.449 682.682 193.348C680.258 193.195 678.19 192.427 675.872 191.803L675.914 192.371C676.198 192.69 676.291 192.756 676.491 193.185C677.723 195.822 675.543 195.825 674.273 196.928C673.679 197.443 673.098 198.824 672.698 199.553C671.48 200.351 670.826 200.425 669.376 200.401C668.401 200.386 667.426 200.391 666.45 200.387C665.796 201.429 665.315 202.536 664.095 202.973C663.062 202.402 662.967 202.185 662.367 201.151C661.372 201.428 660.742 202.898 660.172 203.784C659.94 202.703 661.475 200.266 661.848 198.96L661.347 198.548L659.456 199.072C657.797 198.552 657.279 197.104 656.328 195.69Q661.075 195.118 665.851 194.898C664.892 196.995 663.71 199.137 663.246 201.405L663.879 201.955L664.867 201.521C665.322 200.356 665.834 199.26 666.402 198.147C666.821 197.082 666.823 195.55 666.894 194.41C669.13 191.997 672.45 189.656 675.234 187.903C676.084 188.162 676.84 188.354 677.727 188.462L677.985 187.839C677.629 186.611 677.349 184.797 676.481 183.844C676.226 184.345 675.971 184.852 675.684 185.336C674.821 186.79 674.077 187.136 672.526 187.496C670.181 186.855 668.694 185.415 667.389 183.418C667.395 181.813 667.168 180.168 668.124 178.802L668.864 178.724C669.691 179.98 670.52 181.427 671.6 182.477C672.382 183.237 672.565 183.339 673.627 183.366L674.132 182.741C673.721 181.17 671.887 180.995 670.941 179.803C670.269 178.956 670.384 178.572 670.471 177.578C672.086 177.324 673.936 178.664 675.692 178.831L676.249 178.202L676.061 176.523Z"/>
	<path fill="#EB8418" transform="matrix(0.275391 0 0 0.276042 -0.00012207 -3.05176e-05)" d="M543.912 282.787C546.654 281.92 549.213 278.637 551.044 276.56C549.635 299.113 555.766 314.556 570.549 331.279C575.483 336.861 583.252 345.269 591.128 345.878C591.859 345.935 592.379 345.893 593.083 345.693C597.26 345.927 601.405 346.382 605.494 347.282C609.482 356.582 611.016 367.467 612.861 377.368C610.26 381.997 612.906 392.898 614.286 397.918C621.411 423.818 649.036 438.381 670.724 450.589C665.544 460.358 662.439 470.738 658.41 480.985C655.592 488.155 651.951 495.093 648.494 501.974C642.822 513.262 636.484 524.117 630.027 534.968C624.785 543.776 618.97 552.542 615.402 562.2C612.343 570.479 611.714 579.352 611.978 588.101C582.665 586.971 555.924 574.047 536.05 552.62C524.646 540.326 518.32 526.915 512.494 511.34C511.759 504.594 513.396 497.539 513.519 490.75C509.055 483.44 506.074 474.937 502.749 467.07C492.583 443.01 477.895 408.933 474.32 383.766C473.102 375.189 473.758 366.828 475.523 358.403C482.343 353.608 489.678 348.951 495.507 342.959C499.348 338.971 503.175 335.053 506.503 330.617C507.167 330.098 507.902 328.782 508.418 328.07C515.571 335.35 531.543 352.811 540.424 356.791C540.266 355.641 539.709 354.407 539.325 353.307L540.067 352.027C536.172 344.852 533.002 338.077 531.815 329.876C531.29 326.248 531.681 318.231 529.285 315.555C528.642 314.836 528.551 315.043 527.661 315.017C526.802 315.747 526.105 316.369 525.016 316.744L524.93 315.586C526.247 313.436 529.237 312.126 531.432 310.97L531.674 309.213C533.446 304.779 535.062 300.374 537.084 296.037C538.979 291.972 541.223 288.096 542.928 283.942L543.912 282.787ZM508.418 328.07C507.902 328.782 507.167 330.098 506.503 330.617C503.175 335.053 499.348 338.971 495.507 342.959C489.678 348.951 482.343 353.608 475.523 358.403C473.758 366.828 473.102 375.189 474.32 383.766C477.895 408.933 492.583 443.01 502.749 467.07C506.074 474.937 509.055 483.44 513.519 490.75C529.445 464.573 549.001 406.809 546.948 376.258C546.488 369.419 545.836 361.54 540.424 356.791C531.543 352.811 515.571 335.35 508.418 328.07Z"/>
	<path fill="#E9741E" transform="matrix(0.275391 0 0 0.276042 -0.00012207 -3.05176e-05)" d="M536.824 308.897C537.371 309.094 537.942 309.3 538.435 309.612C539.646 310.377 539.941 311.633 540.26 312.938L537.362 311.657C536.488 310.359 536.61 310.358 536.824 308.897Z"/>
	<path fill="#E84D1A" transform="matrix(0.275391 0 0 0.276042 -0.00012207 -3.05176e-05)" d="M570.972 363.203C571.528 364.038 571.31 364.118 571.164 365.066C570.125 366.173 569.351 366.387 567.893 366.736C567.43 366.054 567.128 365.427 566.828 364.659C567.729 363.442 569.505 363.494 570.972 363.203Z"/>
	<path fill="#E84D1A" transform="matrix(0.275391 0 0 0.276042 -0.00012207 -3.05176e-05)" d="M569.771 366.553C570.932 366.846 571.537 367.361 572.417 368.117C573.072 369.717 573.039 369.974 572.717 371.684C571.956 371.845 571.631 371.802 570.882 371.68C569.715 370.274 569.878 368.308 569.771 366.553Z"/>
	<path fill="#E9741E" transform="matrix(0.275391 0 0 0.276042 -0.00012207 -3.05176e-05)" d="M570.962 527.626L571.754 528.258C572.125 529.203 572.382 529.955 572.078 530.968C571.502 532.879 569.935 534.005 568.319 534.994C568.155 534.59 567.851 534.218 567.825 533.783C567.81 533.517 570.665 528.827 570.962 527.626Z"/>
	<path fill="#E9741E" transform="matrix(0.275391 0 0 0.276042 -0.00012207 -3.05176e-05)" d="M566.159 405.514C567.252 404.382 568.009 403.528 569.534 403.048L570.313 403.527C570.459 404.73 570.262 405.787 569.466 406.76C568.65 407.757 567.998 407.84 566.786 407.886L565.956 407.427C566.196 406.679 566.187 406.283 566.159 405.514Z"/>
	<path fill="#E84D1A" transform="matrix(0.275391 0 0 0.276042 -0.00012207 -3.05176e-05)" d="M634.083 459.917C635.589 460.205 637.039 460.553 638.416 461.253C640.142 462.131 640.651 462.986 641.233 464.703C638.579 464.381 636.185 463.058 634.1 461.457L634.083 459.917Z"/>
	<path fill="#E84D1A" transform="matrix(0.275391 0 0 0.276042 -0.00012207 -3.05176e-05)" d="M574.117 375.37C574.795 375.489 575.506 375.591 576.164 375.792C577.426 376.178 577.644 376.532 578.254 377.672L577.768 378.564C576.241 378.923 576.042 378.65 574.66 378.017L574.174 377.783C573.469 378.036 572.803 378.303 572.139 378.646L571.508 378.976L571.044 378.272C571.657 376.912 572.937 376.208 574.117 375.37Z"/>
	<path fill="#E9741E" transform="matrix(0.275391 0 0 0.276042 -0.00012207 -3.05176e-05)" d="M556.105 329.451C556.794 329.739 557.337 330.185 557.658 330.88C558.144 331.93 558.198 332.586 557.757 333.604C556.248 333.684 556.102 333.28 554.949 332.369C553.696 332.921 552.856 333.097 551.49 333.114L551.224 332.401C552.518 330.566 554.087 330.147 556.105 329.451Z"/>
	<path fill="#E84D1A" transform="matrix(0.275391 0 0 0.276042 -0.00012207 -3.05176e-05)" d="M565.956 407.427C565.712 407.298 565.47 407.164 565.223 407.039C563.63 406.235 562.584 405.752 561.546 404.252C561.284 403.017 561.207 402.841 561.658 401.68L562.559 401.312C563.503 401.423 564.14 401.695 564.996 402.078C565.684 403.149 565.88 404.293 566.159 405.514C566.187 406.283 566.196 406.679 565.956 407.427Z"/>
	<path fill="#E9741E" transform="matrix(0.275391 0 0 0.276042 -0.00012207 -3.05176e-05)" d="M568.699 388.839L569.665 389.572C569.615 391.794 566.997 395.4 565.899 397.528C564.69 396.354 564.438 396.342 564.245 394.597C564.998 392.255 567.024 390.578 568.699 388.839Z"/>
	<path fill="#E84D1A" transform="matrix(0.275391 0 0 0.276042 -0.00012207 -3.05176e-05)" d="M531.432 310.97C531.429 312.115 531.349 313.49 531.711 314.586C532.414 316.721 535.575 319.617 534.422 321.822L533 322.378L533.027 323.095C533.85 323.567 534.857 323.828 535.102 324.779C535.51 326.37 534.81 328.039 535.031 329.66C535.431 332.589 537.547 333.571 537.242 336.936C538.136 337.661 538.394 337.704 539.57 337.638C540.584 337.58 541.469 337.095 542.359 336.646L542.362 337.319C540.524 338.523 538.098 339.16 537.649 341.581C537.047 344.835 542.843 349.672 540.067 352.027C536.172 344.852 533.002 338.077 531.815 329.876C531.29 326.248 531.681 318.231 529.285 315.555C528.642 314.836 528.551 315.043 527.661 315.017C526.802 315.747 526.105 316.369 525.016 316.744L524.93 315.586C526.247 313.436 529.237 312.126 531.432 310.97Z"/>
	<path fill="#E9741E" transform="matrix(0.275391 0 0 0.276042 -0.00012207 -3.05176e-05)" d="M643.353 466.085C644.31 467.476 645.5 468.535 645.38 470.252C644.479 471.435 643.57 472.244 643.43 473.761C644.169 474.323 644.91 474.86 645.68 475.381C645.324 475.888 645.243 476.355 644.558 476.399C641.879 476.57 639.444 473.844 636.239 474.423L635.556 475.235C635.751 476.772 636.172 477.884 636.871 479.262L636.414 480.935C636.211 482.337 636.308 483.494 635.284 484.531L634.223 484.433C633.339 484.101 632.809 483.937 632.25 483.155C630.641 480.907 627.49 479.652 626.62 477.098L625.548 475.919C625.165 474.274 625.865 473.421 626.538 471.943C628.066 471.809 628.807 471.957 630.018 470.975L629.912 469.105C632.43 466.945 639.798 466.798 643.353 466.085Z"/>
	<path fill="#E84D1A" transform="matrix(0.275391 0 0 0.276042 -0.00012207 -3.05176e-05)" d="M634.223 484.433C633.632 483.749 632.953 483.047 632.579 482.217C632.157 481.28 632.212 481.179 632.574 480.286C633.996 480.196 635.062 480.518 636.414 480.935C636.211 482.337 636.308 483.494 635.284 484.531L634.223 484.433Z"/>
	<path fill="#E84D1A" transform="matrix(0.275391 0 0 0.276042 -0.00012207 -3.05176e-05)" d="M626.538 471.943L627.103 472.115C629.175 472.732 630.852 472.807 632.996 472.677C633.939 473.61 633.792 473.814 633.886 475.091C631.082 476.971 629.824 472.992 626.62 477.098L625.548 475.919C625.165 474.274 625.865 473.421 626.538 471.943Z"/>
	<path fill="#EB9F17" transform="matrix(0.275391 0 0 0.276042 -0.00012207 -3.05176e-05)" d="M254.019 127.291C267.905 105.927 318.51 86.9217 342.958 81.7698C372.168 75.6144 413.817 73.724 442.707 81.9536Q447.238 83.2872 451.655 84.9589Q456.073 86.6306 460.352 88.631Q464.63 90.6314 468.746 92.949Q472.861 95.2666 476.79 97.8882C489.346 106.128 501.018 116.597 509.446 129.11L509.439 129.358C511.282 132.051 512.439 134.866 513.628 137.888C516.083 139.132 520.018 142.238 520.751 144.98C520.913 145.585 520.932 145.819 521.027 146.433C523.274 147.292 524.622 150.469 525.546 152.557C527.426 156.804 530.086 163.034 530.157 167.67C529.726 168.492 529.298 169.151 528.698 169.861C530.574 170.555 531.359 170.906 532.231 172.821C533.632 175.895 534.438 179.147 536.017 182.143C535.428 186.463 537.595 192.798 538.454 197.148C541.992 215.053 544.204 234.326 541.174 252.466C539.996 259.516 536.805 267.574 537.131 274.669C538.283 275.411 540.488 273.748 541.001 275.568C541.278 276.552 541.001 277.536 540.819 278.517C539.867 279.125 539.555 279.852 539.351 280.998C539.262 281.495 539.362 282.048 539.422 282.539L540.142 283.308C541.267 282.661 541.977 281.85 542.829 280.883L543.44 280.867C543.671 281.545 543.859 282.067 543.912 282.787L542.928 283.942C541.223 288.096 538.979 291.972 537.084 296.037C535.062 300.374 533.446 304.779 531.674 309.213L531.432 310.97C529.237 312.126 526.247 313.436 524.93 315.586L525.016 316.744C526.105 316.369 526.802 315.747 527.661 315.017C528.551 315.043 528.642 314.836 529.285 315.555C531.681 318.231 531.29 326.248 531.815 329.876C533.002 338.077 536.172 344.852 540.067 352.027L539.325 353.307C539.709 354.407 540.266 355.641 540.424 356.791C531.543 352.811 515.571 335.35 508.418 328.07C507.902 328.782 507.167 330.098 506.503 330.617C503.175 335.053 499.348 338.971 495.507 342.959C489.678 348.951 482.343 353.608 475.523 358.403L475.544 354.609C472.257 349.823 475.948 339.9 475.522 334.277C475.413 332.844 475.403 332.257 474.324 331.339C473.653 332.016 473.047 332.488 472.23 332.978C470.413 332.805 470.355 332.262 469.2 330.917C468.214 328.528 468.329 326.108 466.703 323.929C465.266 323.206 465.124 323.381 463.614 323.706C465.025 320.144 465.641 316.853 466.116 313.06L466.346 308.355C465.52 306.11 466.998 303.975 465.716 301.869Q467.123 297.86 468.374 293.8L468.522 292.448C468.092 289.825 467.946 287.297 467.899 284.641C468.075 281.304 466.835 278.615 465.67 275.564C460.457 266.885 452.046 260.035 443.177 255.373C441.018 254.142 438.633 253.189 436.37 252.158C431.26 250.126 425.46 247.221 419.944 246.817L417.599 246.343L412.824 245.347C410.597 245.153 408.244 244.403 406.086 243.817C399.767 241.821 393.542 240.27 386.981 239.302C383.936 238.915 380.581 237.034 377.643 236.031C372.964 234.433 368.109 233.241 363.496 231.466C353.178 227.494 342.818 221.182 333.571 215.135C327.156 212.174 320.772 206.296 315.432 201.675C309.527 197.683 305.389 192.52 301.155 186.895C297.381 181.975 293.354 177.972 290.113 172.593C288.181 170.714 286.615 168.412 284.996 166.262C282.577 161.146 279.247 156.512 276.652 151.482C274.194 146.717 272.401 141.178 269.574 136.67C268.949 135.673 268.163 135.2 267.117 134.717C267.71 131.603 268.044 128.821 269.019 125.756C271.901 125.418 274.051 124.76 276.462 123.164C268.838 123.757 261.457 125.59 254.019 127.291Z"/>
	<path fill="#EB8418" transform="matrix(0.275391 0 0 0.276042 -0.00012207 -3.05176e-05)" d="M277.683 130.754C279.14 130.988 280.154 131.116 281.187 132.185C280.985 133.581 279.818 134.553 278.891 135.548L278.932 136.268L278.255 136.214C278.036 135.843 277.821 135.47 277.644 135.076C276.944 133.528 277.051 132.285 277.683 130.754Z"/>
	<path fill="#C0842E" transform="matrix(0.275391 0 0 0.276042 -0.00012207 -3.05176e-05)" d="M309.572 133.073C307.907 131.406 305.993 129.507 305.41 127.182C305.655 125.98 305.604 125.947 306.55 125.187C307.344 125.167 308.118 125.173 308.872 125.457C311.248 126.352 312.043 128.358 313.078 130.475C311.921 131.323 310.651 132.134 309.572 133.073Z"/>
	<path fill="#EB8418" transform="matrix(0.275391 0 0 0.276042 -0.00012207 -3.05176e-05)" d="M284.996 166.262C287.041 165.087 290.375 162.752 292.823 163.471C294.835 164.061 296.226 166.694 297.784 168.031C299.162 169.215 300.871 169.933 302.327 171.161C302.383 171.208 302.447 171.243 302.507 171.284C299.987 173.474 297.016 173.628 293.703 173.433C292.431 173.358 291.378 172.686 290.113 172.593C288.181 170.714 286.615 168.412 284.996 166.262Z"/>
	<path fill="#C59832" transform="matrix(0.275391 0 0 0.276042 -0.00012207 -3.05176e-05)" d="M302.507 171.284C303.567 171.628 303.863 171.559 304.467 172.534L303.82 172.838C303.264 173.104 302.886 173.341 302.461 173.801C302.984 174.87 303.291 175.19 304.417 175.633C304.851 175.803 305.345 175.885 305.798 175.98C305.34 177.957 304.761 179.748 305.473 181.735C305.536 181.91 305.591 182.088 305.659 182.262C305.7 182.367 305.754 182.467 305.802 182.569Q303.454 184.706 301.155 186.895C297.381 181.975 293.354 177.972 290.113 172.593C291.378 172.686 292.431 173.358 293.703 173.433C297.016 173.628 299.987 173.474 302.507 171.284Z"/>
	<path fill="#EB8418" transform="matrix(0.275391 0 0 0.276042 -0.00012207 -3.05176e-05)" d="M430.846 218.568C432.27 219.719 433.697 221.089 435.375 221.844C435.205 222.365 435.057 222.846 434.773 223.32C433.787 224.964 434.022 227.363 434.494 229.179C434.842 230.515 435.154 230.903 436.099 231.808C436.326 232.025 436.527 232.268 436.741 232.498L437.236 233.026C437.098 234.155 436.929 234.873 435.986 235.622C434.27 236.987 431.469 237.358 430.044 239.063C428.887 240.448 429.82 242 427.928 242.797C427.123 242.185 427.393 242.593 427.165 241.625C426.666 239.511 425.967 239.074 424.226 237.874C424.734 237.286 425.126 236.604 425.542 235.947C425.782 235.568 426.047 235.067 426.348 234.745C426.568 234.51 426.886 234.384 427.114 234.157C428.008 233.263 428.402 232.268 428.396 231.037C427.065 229.83 425.57 229.989 423.821 229.791L423.458 228.996C424.262 226.723 426.272 226.578 427.714 224.934C428.713 223.794 428.34 222.86 428.118 221.53C428.687 220.384 429.924 219.455 430.846 218.568Z"/>
	<path fill="#C0842E" transform="matrix(0.275391 0 0 0.276042 -0.00012207 -3.05176e-05)" d="M305.802 182.569C306.486 182.141 306.942 181.881 307.345 181.167L306.947 180.274C307.266 178.704 307.406 177.595 308.56 176.431C309.357 176.57 308.474 183.226 310.01 184.947L310.578 184.564C310.264 183.014 310.005 181.68 310.139 180.088C310.755 179.21 311.218 178.582 312.225 178.134C314.477 177.133 314.541 179.92 316.488 180.677C316.54 181.919 316.508 183.215 316.8 184.424C315.155 185.249 314.038 185.876 312.96 187.428L313.435 187.74L316.262 186.801C317.016 187.598 317.489 188.622 317.533 189.765C317.542 190.007 317.488 190.248 317.466 190.489C316.622 190.515 316.116 190.335 315.341 190.015L314.815 190.442L314.894 191.804L314.192 191.815C313.516 191.83 312.978 191.93 312.33 192.141C312.283 193.532 312.347 194.18 313.094 195.368L313.483 195.576C314.549 196.153 315.374 196.683 316.253 197.516C316.651 199.108 315.978 200.176 315.432 201.675C309.527 197.683 305.389 192.52 301.155 186.895Q303.454 184.706 305.802 182.569Z"/>
	<path fill="#C0842E" transform="matrix(0.275391 0 0 0.276042 -0.00012207 -3.05176e-05)" d="M407.347 208.87C408.134 207.811 408.187 207.474 409.496 207.113C412.455 208.876 411.509 212.42 413.738 214.188L415.015 213.26C416.117 213.765 416.464 214.128 416.927 215.273C417.556 216.829 417.396 218.557 418.81 219.663C420.495 220.058 422.471 218.764 423.741 219.371C423.295 222.215 418.717 225.26 420.727 227.819C421.174 228.388 421.608 228.556 422.258 228.833L422.73 228.574C422.185 227.836 421.652 227.105 421.154 226.333C422.141 224.552 426.337 223.101 428.118 221.53C428.34 222.86 428.713 223.794 427.714 224.934C426.272 226.578 424.262 226.723 423.458 228.996L423.821 229.791C425.57 229.989 427.065 229.83 428.396 231.037C428.402 232.268 428.008 233.263 427.114 234.157C426.886 234.384 426.568 234.51 426.348 234.745C426.047 235.067 425.782 235.568 425.542 235.947C425.126 236.604 424.734 237.286 424.226 237.874C423.798 235.941 424.605 233.619 424.282 231.482C422.6 231.967 421.176 232.333 420.266 233.939C419.267 235.703 418.696 237.352 417.155 238.747C415.211 239.264 412.42 239.157 410.916 240.477C410.64 241.577 410.583 242.203 411.187 243.225C411.632 243.976 412.267 244.675 412.824 245.347C410.597 245.153 408.244 244.403 406.086 243.817C405.126 241.716 404.801 238.634 403.709 236.766C403.228 235.945 401.676 234.864 400.973 234.006L401.077 233.15C401.957 233.687 402.535 234.026 403.57 234.208C404.164 233.117 404.273 232.284 404.372 231.054C403.244 229.87 402.321 230.918 400.896 230.347C401.249 228.661 402.129 228.006 403.297 226.816C403.515 225.098 402.811 224.026 402.032 222.574C402.705 222.678 402.539 222.568 403.016 222.898C403.961 223.551 404.844 224.168 405.851 224.732C406.704 222.798 404.452 221.069 405.455 219.237C406.852 216.687 411.126 214.963 411.007 211.751C410.975 210.877 411.091 211.179 410.508 210.618C409.7 211.28 409.208 211.759 408.109 211.809C407.291 210.797 407.438 210.146 407.347 208.87Z"/>
	<path fill="#E84D1A" transform="matrix(0.275391 0 0 0.276042 -0.00012207 -3.05176e-05)" d="M488.774 165.032C493.885 152.26 501.174 140.308 509.439 129.358C511.282 132.051 512.439 134.866 513.628 137.888C516.083 139.132 520.018 142.238 520.751 144.98C520.913 145.585 520.932 145.819 521.027 146.433C523.274 147.292 524.622 150.469 525.546 152.557C527.426 156.804 530.086 163.034 530.157 167.67C529.726 168.492 529.298 169.151 528.698 169.861C527.175 171.755 525.567 173.586 524.525 175.799C517.101 181.548 511.577 189.348 503.95 194.722Q506.54 191.074 509.172 187.455C507.642 185.855 506.036 184.319 504.846 182.443C504.893 182.071 504.942 181.862 504.873 181.465C504.152 177.342 492.312 167.771 488.774 165.032Z"/>
	<path fill="#D0465B" transform="matrix(0.275391 0 0 0.276042 -0.00012207 -3.05176e-05)" d="M513.628 137.888C516.083 139.132 520.018 142.238 520.751 144.98C520.913 145.585 520.932 145.819 521.027 146.433Q520.119 146.17 519.252 145.791C515.993 144.333 514.739 141.014 513.628 137.888Z"/>
	<path fill="#EB8418" transform="matrix(0.275391 0 0 0.276042 -0.00012207 -3.05176e-05)" d="M318.586 124.049C314.753 124.08 310.522 124.471 306.773 123.633L306.883 123.217C310.651 122.588 328.872 123.003 331.98 124.15L331.732 124.713C328.201 124.4 324.151 123.681 320.657 124.213L320.14 124.704L320.88 126.749C320.203 127.475 319.675 127.676 318.773 128.03C318.656 129.31 319.319 130.125 319.254 131.325C319.113 133.916 316.703 137.093 318.292 139.609C319.21 139.474 320.053 139.333 320.985 139.441L320.904 140.437L319.332 141.671C320.933 142.041 321.425 141.477 322.862 140.755C323.398 141.861 322.695 143.914 322.477 145.158C321.743 145.917 321.294 146.182 320.309 146.573C319.096 147.055 318.66 147.538 317.882 148.541C316.917 149.785 316.671 150.277 315.193 150.89L314.3 150.556C313.826 149.379 313.351 148.244 312.749 147.126L311.889 147.397C311.664 150.293 313.25 154.346 312.393 156.964C311.3 157.713 310.278 158.035 309.011 158.405L308.633 159.157C309.249 160.336 309.629 160.786 310.725 161.54C311.823 161.427 312.374 160.999 313.229 160.369L314.497 160.481C314.803 162.039 314.822 163.161 315.884 164.404C316.011 164.408 316.138 164.41 316.266 164.416C317.647 164.483 318.17 164.688 319.252 165.538C319.047 167.498 318.687 168.913 319.924 170.55C320.466 170.647 320.641 170.785 321.15 170.54C322.545 169.867 324.943 168.764 326.476 169.415C328.125 170.115 330.442 171.193 331.423 172.717C331.326 175.281 328.429 176.293 328.631 178.432C329.939 179.143 331.257 179.58 332.735 179.073C334.067 178.616 335.283 177.692 336.422 176.886L337.314 176.892C337.779 178.016 337.295 179.182 337.016 180.31L337.873 182.267C336.425 183.895 335.325 182.661 334.803 185.738L335.374 186.178C337.779 185.641 339.432 182.718 340.712 180.764C342.24 181.746 343.733 183.271 345.641 182.851C346.881 182.579 348.075 181.98 349.304 182.345C349.241 183.788 348.159 185.008 347.374 186.169L348.015 186.058L349.517 185.813C350.937 185.584 351.68 185.623 353.033 186.11C354.061 187.153 354.23 187.408 354.605 188.819Q354.083 190.499 353.493 192.157C354.195 192.711 354.507 192.824 355.401 192.862C356.673 193.416 357.576 193.571 358.116 194.979C358.323 195.52 358.407 196.152 358.507 196.723C359.496 195.474 360.752 193.673 362.241 193.035C363.715 192.404 364.902 193.225 366.253 193.78L367.408 193.188L367.564 192.34L366.169 190.818C366.955 189.537 370.219 188.449 371.653 187.794C372.354 187.937 373.619 187.951 373.982 188.593C374.963 190.332 374.259 191.993 375.724 193.554C378.296 194.333 380.401 193.228 382.669 192.052C383.96 191.383 385.167 190.531 386.361 189.704L387.062 189.993C386.623 192.16 385.419 194.503 385.646 196.702C387.083 197.762 387.449 196.615 388.586 198.38C390.585 197.454 392.38 194.656 393.743 192.942C393.859 193.155 393.982 193.364 394.09 193.581C394.956 195.32 394.278 197.662 393.833 199.438C394.3 200.649 394.36 200.564 395.534 201.157C397.518 199.247 394.504 196.386 398.27 194.584C401.226 194.737 406.342 194.549 408.761 196.106C408.787 197.849 406.699 198.197 407.077 199.763C409.061 199.419 411.577 197.749 413.486 198.241C414.521 199.678 414.86 200.52 416.718 200.875C418.044 201.129 419.526 201.119 420.877 201.192C419.409 203.503 418.044 206.337 415.842 207.988L414.7 208.136C412.892 206.693 413.333 202.873 411.487 202.016C410.697 203.253 411.49 205.198 410.306 205.885C409.528 205.211 409.437 204.674 409.166 203.719L408.543 203.565C407.918 204.593 407.331 205.559 406.52 206.452C405.082 206.248 403.496 205.382 402.233 206.016C401.984 207.295 401.855 207.355 402.486 208.471C404.157 208.871 405.797 208.309 407.347 208.87C407.438 210.146 407.291 210.797 408.109 211.809C409.208 211.759 409.7 211.28 410.508 210.618C411.091 211.179 410.975 210.877 411.007 211.751C411.126 214.963 406.852 216.687 405.455 219.237C404.452 221.069 406.704 222.798 405.851 224.732C404.844 224.168 403.961 223.551 403.016 222.898C402.539 222.568 402.705 222.678 402.032 222.574C402.811 224.026 403.515 225.098 403.297 226.816C402.129 228.006 401.249 228.661 400.896 230.347C402.321 230.918 403.244 229.87 404.372 231.054C404.273 232.284 404.164 233.117 403.57 234.208C402.535 234.026 401.957 233.687 401.077 233.15L400.973 234.006C401.676 234.864 403.228 235.945 403.709 236.766C404.801 238.634 405.126 241.716 406.086 243.817C399.767 241.821 393.542 240.27 386.981 239.302C383.936 238.915 380.581 237.034 377.643 236.031C372.964 234.433 368.109 233.241 363.496 231.466C353.178 227.494 342.818 221.182 333.571 215.135C327.156 212.174 320.772 206.296 315.432 201.675C315.978 200.176 316.651 199.108 316.253 197.516C315.374 196.683 314.549 196.153 313.483 195.576L313.094 195.368C312.347 194.18 312.283 193.532 312.33 192.141C312.978 191.93 313.516 191.83 314.192 191.815L314.894 191.804L314.815 190.442L315.341 190.015C316.116 190.335 316.622 190.515 317.466 190.489C317.488 190.248 317.542 190.007 317.533 189.765C317.489 188.622 317.016 187.598 316.262 186.801L313.435 187.74L312.96 187.428C314.038 185.876 315.155 185.249 316.8 184.424C316.508 183.215 316.54 181.919 316.488 180.677C317.225 175.535 320.044 176.276 322.724 172.857C322.587 172.647 322.526 172.361 322.314 172.226C322.191 172.148 322.029 172.292 321.886 172.324C320.02 172.753 319.097 172.295 317.317 171.759C317.394 170.957 317.444 170.405 317.19 169.633L316.334 169.75Q315.877 171.325 315.378 172.887C313.926 173.408 310.079 171.143 308.509 170.442C307.424 170.838 306.719 171.082 305.535 170.919C304.738 169.662 305.007 168.437 305.031 166.982C304.535 166.416 304.096 165.915 303.748 165.244C304.711 164.973 305.525 165.5 306.452 165.834L306.953 165.257C306.085 162.505 300.893 163.014 298.615 161.394L298.775 160.701C300.01 160.403 301.187 160.313 302.454 160.239C305.035 157.91 305.558 154.834 306.391 151.605C304.631 149.949 302.953 148.206 301.258 146.483C302.913 144.497 304.57 142.657 305.567 140.241L307.236 140.103C308.395 139.328 308.529 139.339 308.996 137.948C308.584 136.792 308.277 136.02 307.129 135.406C305.463 134.514 304.69 134.864 303.05 135.433L302.834 135.11C303.139 134.303 303.608 133.72 304.118 133.033C306.022 132.385 307.252 133.464 309.116 133.191C309.271 133.169 309.42 133.112 309.572 133.073C310.651 132.134 311.921 131.323 313.078 130.475C313.69 131.494 314.823 132.747 314.45 133.942C314.122 134.991 313.166 136.056 312.514 136.935C313.492 137.401 313.537 137.26 314.594 136.947C316.185 135.297 317.002 132.408 317.049 130.136C317.058 129.699 317.015 129.263 317 128.827C316.947 127.295 317.446 126.354 318.107 125.018C318.207 124.816 318.3 124.611 318.4 124.409C318.46 124.288 318.524 124.169 318.586 124.049Z"/>
	<path fill="#C0842E" transform="matrix(0.275391 0 0 0.276042 -0.00012207 -3.05176e-05)" d="M355.401 192.862C356.673 193.416 357.576 193.571 358.116 194.979C358.323 195.52 358.407 196.152 358.507 196.723C358.401 197.056 357.991 197.499 357.781 197.786C356.987 197.653 356.579 197.558 356.013 196.938C354.828 195.642 355.215 194.431 355.401 192.862Z"/>
	<path fill="#9D6F30" transform="matrix(0.275391 0 0 0.276042 -0.00012207 -3.05176e-05)" d="M322.912 186.348C324.518 187.065 325.926 188.025 327.695 187.872C328.055 186.79 327.934 186.67 327.425 185.641C327.056 184.894 326.533 184.303 325.981 183.689L326.432 183.256C327.297 183.44 327.984 183.397 328.538 184.168C329.645 185.707 329.56 187.705 330.988 189.121C332.089 188.029 331.693 186.787 332.975 185.727L333.502 186.364C333.268 187.643 332.904 188.27 332.106 189.288C332.876 190.867 334.474 189.948 335.154 191.808C333.975 193.16 332.799 193.301 332.318 195.079C332.959 196.396 333.678 196.949 334.852 197.798L335.022 198.71C328.836 198.941 331.769 194.491 327.968 192.594C327.582 192.401 326.451 192.793 325.675 192.462C326.051 191.71 326.317 191.118 326.446 190.283C325.797 189.287 325.672 188.809 324.549 188.355L322.871 189.393C322.293 190.714 322.603 191.248 322.891 192.634L322.208 193.019C320.631 192.701 320.071 192.825 319.003 191.571L319.28 190.657C320.208 190.163 321.367 189.645 322.139 188.927C323.004 188.122 322.833 187.447 322.912 186.348Z"/>
	<path fill="#C59832" transform="matrix(0.275391 0 0 0.276042 -0.00012207 -3.05176e-05)" d="M316.8 184.424C319.425 184.405 320.596 185.987 322.912 186.348C322.833 187.447 323.004 188.122 322.139 188.927C321.367 189.645 320.208 190.163 319.28 190.657L319.003 191.571C320.071 192.825 320.631 192.701 322.208 193.019L322.891 192.634C322.603 191.248 322.293 190.714 322.871 189.393L324.549 188.355C325.672 188.809 325.797 189.287 326.446 190.283C326.317 191.118 326.051 191.71 325.675 192.462C326.451 192.793 327.582 192.401 327.968 192.594C331.769 194.491 328.836 198.941 335.022 198.71C335.766 200.235 336.283 200.925 336.144 202.698C335.095 204.065 333.693 204.722 332.219 205.546L337.398 209.038C336.107 211.055 334.76 213.057 333.571 215.135C327.156 212.174 320.772 206.296 315.432 201.675C315.978 200.176 316.651 199.108 316.253 197.516C315.374 196.683 314.549 196.153 313.483 195.576L313.094 195.368C312.347 194.18 312.283 193.532 312.33 192.141C312.978 191.93 313.516 191.83 314.192 191.815L314.894 191.804L314.815 190.442L315.341 190.015C316.116 190.335 316.622 190.515 317.466 190.489C317.488 190.248 317.542 190.007 317.533 189.765C317.489 188.622 317.016 187.598 316.262 186.801L313.435 187.74L312.96 187.428C314.038 185.876 315.155 185.249 316.8 184.424Z"/>
	<path fill="#EB9F17" transform="matrix(0.275391 0 0 0.276042 -0.00012207 -3.05176e-05)" d="M334.852 197.798C336.204 194.218 339.901 194.505 339.071 191.271L339.953 190.876C341.453 191.695 341.675 193.19 342.176 194.772C344.526 195.322 349.966 194.454 351.454 196.439C350.979 197.786 350.367 199.016 350.755 200.454C352.107 201.735 353.519 202.19 355.423 202.172C357.194 202.155 358.103 201.464 359.4 200.342C360.601 199.303 361.154 198.891 362.76 199.067C366.2 199.442 369.546 201.641 372.838 202.724C374.458 203.257 376.174 203.34 377.78 203.905C378.184 205.32 377.681 206.797 378.501 207.949C379.671 207.711 380.246 207.115 381.093 206.34C381.561 204.93 381.726 203.253 383.007 202.464C384.941 203.019 385.404 202.535 387.152 201.581L387.784 201.989C387.947 204.641 386.411 206.921 386.588 209.507C388.182 210.152 388.662 209.431 389.872 210.893C389.765 211.667 389.677 212.447 389.531 213.214C391.342 213.012 392.908 212.694 394.646 213.405C396.096 215.245 395.267 217.703 396.392 219.909L397.273 220.005L399.731 217.74L400.4 218.018C400.316 219.725 398.818 219.826 399.314 221.464C400.225 221.917 401.062 222.27 402.032 222.574C402.811 224.026 403.515 225.098 403.297 226.816C402.129 228.006 401.249 228.661 400.896 230.347C402.321 230.918 403.244 229.87 404.372 231.054C404.273 232.284 404.164 233.117 403.57 234.208C402.535 234.026 401.957 233.687 401.077 233.15L400.973 234.006C401.676 234.864 403.228 235.945 403.709 236.766C404.801 238.634 405.126 241.716 406.086 243.817C399.767 241.821 393.542 240.27 386.981 239.302C383.936 238.915 380.581 237.034 377.643 236.031C372.964 234.433 368.109 233.241 363.496 231.466C353.178 227.494 342.818 221.182 333.571 215.135C334.76 213.057 336.107 211.055 337.398 209.038L332.219 205.546C333.693 204.722 335.095 204.065 336.144 202.698C336.283 200.925 335.766 200.235 335.022 198.71L334.852 197.798Z"/>
	<path fill="#EB8418" transform="matrix(0.275391 0 0 0.276042 -0.00012207 -3.05176e-05)" d="M368.66 217.817C370.22 219.449 369.343 222.627 370.958 224.254C371.839 225.141 373.201 225.694 374.169 226.666C373.847 227.435 373.951 227.476 373.173 227.961C371.467 229.025 369.468 228.67 367.624 228.241C367.412 228.047 366.978 227.632 366.74 227.493C365.965 227.043 361.657 228.427 360.572 228.638C358.928 224.537 357.988 226.181 356.175 223.883L356.526 223.079C357.276 223.206 358.073 223.43 358.81 223.16C359.332 222.968 359.37 222.331 359.547 221.851C359.174 221.275 358.967 220.995 358.359 220.636C358.205 220.545 358.043 220.47 357.885 220.387C360.725 220.39 363.109 221.25 365.77 222.162L368.66 217.817Z"/>
	<path fill="#E0242A" transform="matrix(0.275391 0 0 0.276042 -0.00012207 -3.05176e-05)" d="M488.591 166.202C494.324 171.321 499.593 176.843 504.846 182.443C506.036 184.319 507.642 185.855 509.172 187.455Q506.54 191.074 503.95 194.722C511.577 189.348 517.101 181.548 524.525 175.799C525.567 173.586 527.175 171.755 528.698 169.861C530.574 170.555 531.359 170.906 532.231 172.821C533.632 175.895 534.438 179.147 536.017 182.143C535.428 186.463 537.595 192.798 538.454 197.148C541.992 215.053 544.204 234.326 541.174 252.466C539.996 259.516 536.805 267.574 537.131 274.669C538.283 275.411 540.488 273.748 541.001 275.568C541.278 276.552 541.001 277.536 540.819 278.517C539.867 279.125 539.555 279.852 539.351 280.998C539.262 281.495 539.362 282.048 539.422 282.539L540.142 283.308C541.267 282.661 541.977 281.85 542.829 280.883L543.44 280.867C543.671 281.545 543.859 282.067 543.912 282.787L542.928 283.942C541.223 288.096 538.979 291.972 537.084 296.037C535.062 300.374 533.446 304.779 531.674 309.213L531.432 310.97C529.237 312.126 526.247 313.436 524.93 315.586L525.016 316.744C526.105 316.369 526.802 315.747 527.661 315.017C528.551 315.043 528.642 314.836 529.285 315.555C531.681 318.231 531.29 326.248 531.815 329.876C533.002 338.077 536.172 344.852 540.067 352.027L539.325 353.307C539.709 354.407 540.266 355.641 540.424 356.791C531.543 352.811 515.571 335.35 508.418 328.07C507.902 328.782 507.167 330.098 506.503 330.617C503.175 335.053 499.348 338.971 495.507 342.959C489.678 348.951 482.343 353.608 475.523 358.403L475.544 354.609C472.257 349.823 475.948 339.9 475.522 334.277C475.413 332.844 475.403 332.257 474.324 331.339C473.653 332.016 473.047 332.488 472.23 332.978C470.413 332.805 470.355 332.262 469.2 330.917C468.214 328.528 468.329 326.108 466.703 323.929C465.266 323.206 465.124 323.381 463.614 323.706C465.025 320.144 465.641 316.853 466.116 313.06L466.346 308.355C465.52 306.11 466.998 303.975 465.716 301.869Q467.123 297.86 468.374 293.8L468.522 292.448C468.092 289.825 467.946 287.297 467.899 284.641C468.075 281.304 466.835 278.615 465.67 275.564C468.106 276.337 469.348 276.902 471.833 275.916C471.207 278.131 470.533 280.061 470.952 282.382C472.632 280.911 474.101 279.329 474.889 277.209C474.722 275.52 474.061 275.304 472.854 274.168C476.307 271.241 475.91 274.808 478.718 274.831L480.297 272.962C478.069 266.447 477.118 258.945 476.326 252.125C472.845 222.124 477.49 194.107 488.591 166.202Z"/>
	<path fill="#D0465B" transform="matrix(0.275391 0 0 0.276042 -0.00012207 -3.05176e-05)" d="M528.698 169.861C530.574 170.555 531.359 170.906 532.231 172.821C533.632 175.895 534.438 179.147 536.017 182.143C534.96 182.479 534.542 182.505 533.485 182.162C530.804 179.543 530.655 174.269 530.074 170.701C528.304 172.548 526.546 174.229 524.525 175.799C525.567 173.586 527.175 171.755 528.698 169.861Z"/>
	<path fill="#E84D1A" transform="matrix(0.275391 0 0 0.276042 -0.00012207 -3.05176e-05)" d="M536.338 294.922L536.548 293.994C537.622 289.343 538.693 286.58 542.928 283.942C541.223 288.096 538.979 291.972 537.084 296.037C535.062 300.374 533.446 304.779 531.674 309.213C530.588 308.895 529.352 309.443 528.293 309.738L528.071 309.276C528.657 307.772 530.635 306.84 531.872 305.722C531.804 305.551 531.73 305.382 531.668 305.209C530.699 302.529 532.33 300.667 533.428 298.245L533.181 297.593C532.338 297.602 531.624 297.7 530.86 297.291C532.043 295.981 534.648 295.512 536.338 294.922Z"/>
	<path fill="#C0842E" transform="matrix(0.275391 0 0 0.276042 -0.00012207 -3.05176e-05)" d="M480.297 272.962C482.915 280.971 485.624 288.874 488.95 296.625C490.158 299.824 491.383 302.931 493.15 305.874C495.183 309.26 497.99 312.768 499.462 316.405C501.065 318.617 502.945 320.86 504.298 323.224C505.647 324.803 507.22 326.385 508.418 328.07C507.902 328.782 507.167 330.098 506.503 330.617C503.175 335.053 499.348 338.971 495.507 342.959C489.678 348.951 482.343 353.608 475.523 358.403L475.544 354.609C472.257 349.823 475.948 339.9 475.522 334.277C475.413 332.844 475.403 332.257 474.324 331.339C473.653 332.016 473.047 332.488 472.23 332.978C470.413 332.805 470.355 332.262 469.2 330.917C468.214 328.528 468.329 326.108 466.703 323.929C465.266 323.206 465.124 323.381 463.614 323.706C465.025 320.144 465.641 316.853 466.116 313.06L466.346 308.355C465.52 306.11 466.998 303.975 465.716 301.869Q467.123 297.86 468.374 293.8L468.522 292.448C468.092 289.825 467.946 287.297 467.899 284.641C468.075 281.304 466.835 278.615 465.67 275.564C468.106 276.337 469.348 276.902 471.833 275.916C471.207 278.131 470.533 280.061 470.952 282.382C472.632 280.911 474.101 279.329 474.889 277.209C474.722 275.52 474.061 275.304 472.854 274.168C476.307 271.241 475.91 274.808 478.718 274.831L480.297 272.962Z"/>
	<path fill="#EB8418" transform="matrix(0.275391 0 0 0.276042 -0.00012207 -3.05176e-05)" d="M499.462 316.405C501.065 318.617 502.945 320.86 504.298 323.224C501.767 323.65 500.867 324.617 499.252 326.502C498.272 326.201 497.29 325.935 496.296 325.684C495.954 324.654 496.034 324.674 496.471 323.665C497.423 323.098 498.268 322.689 499.322 322.341L499.643 322.238L499.498 321.38C498.519 320.577 497.308 319.834 497.002 318.545C497.44 317.4 498.459 316.992 499.462 316.405Z"/>
	<path fill="#EB8418" transform="matrix(0.275391 0 0 0.276042 -0.00012207 -3.05176e-05)" d="M496.558 330.09C499.7 331.109 504.601 329.576 506.503 330.617C503.175 335.053 499.348 338.971 495.507 342.959C494.145 337.742 497.496 337.892 497.174 335.408C496.123 335.198 495.104 335.151 494.038 335.106L494.164 334.38L495.405 333.843C496.492 332.455 496.384 331.81 496.558 330.09Z"/>
	<path fill="#EB8418" transform="matrix(0.275391 0 0 0.276042 -0.00012207 -3.05176e-05)" d="M480.297 272.962C482.915 280.971 485.624 288.874 488.95 296.625C487.733 296.991 486.495 297.431 485.212 297.26C482.012 296.834 477.606 297.732 474.863 295.913L475.108 294.574C472.866 292.732 476.4 291.593 476.035 289.446L475.263 289.032C474.317 289.444 473.49 289.748 472.484 289.971L471.979 289.5C472.466 288.818 472.824 288.212 473.146 287.438C471.932 286.792 471.587 286.907 470.252 286.998C468.873 286.297 468.92 285.884 468.323 284.503L467.899 284.641C468.075 281.304 466.835 278.615 465.67 275.564C468.106 276.337 469.348 276.902 471.833 275.916C471.207 278.131 470.533 280.061 470.952 282.382C472.632 280.911 474.101 279.329 474.889 277.209C474.722 275.52 474.061 275.304 472.854 274.168C476.307 271.241 475.91 274.808 478.718 274.831L480.297 272.962Z"/>
	<path fill="#EB9F17" transform="matrix(0.275391 0 0 0.276042 -0.00012207 -3.05176e-05)" d="M470.662 282.664C471.229 283.745 471.415 284.474 471.57 285.686C474.537 286.475 475.624 283.206 477.987 287.078C478.712 288.265 478.803 290.061 478.476 291.384C478.065 293.041 476.43 293.714 475.108 294.574C472.866 292.732 476.4 291.593 476.035 289.446L475.263 289.032C474.317 289.444 473.49 289.748 472.484 289.971L471.979 289.5C472.466 288.818 472.824 288.212 473.146 287.438C471.932 286.792 471.587 286.907 470.252 286.998C468.873 286.297 468.92 285.884 468.323 284.503C469.096 283.156 469.281 283.214 470.662 282.664Z"/>
	<path fill="#9D6F30" transform="matrix(0.275391 0 0 0.276042 -0.00012207 -3.05176e-05)" d="M468.522 292.448C472.339 294.313 472.228 300.467 474.84 302.327L475.284 300.312C476.646 299.992 476.939 299.88 478.324 300.307C478.322 302.516 475.575 303.207 476.874 305.209C478.04 305.749 479.226 306.263 480.339 306.906C480.321 306.788 480.298 306.67 480.284 306.551C480.07 304.7 480.878 303.557 481.778 302.039C481.66 300.992 481.325 300.629 480.685 299.839C481.649 298.931 481.925 299.099 483.208 299.043C484.412 299.662 484.614 299.737 485.342 300.954C484.956 302.119 484.342 302.755 483.525 303.625C484.048 305.552 484.424 307.968 485.485 309.658L485.775 309.505C485.852 308.085 485.896 306.75 486.299 305.38C487.185 305.316 487.128 305.286 487.801 305.874C488.414 306.411 488.733 306.802 489.055 307.567C488.635 308.438 488.221 308.993 487.585 309.701C488.971 310.674 490.559 309.494 492.144 310.449C492.062 311.56 491.56 312.307 491.012 313.24C491.568 314.984 493.196 316.476 494.375 317.854C491.583 317.935 486.783 318.763 484.685 320.747C484.308 321.103 484.313 321.149 484.097 321.537L484.529 322.059L486.278 322.033L486.531 322.701C485.778 323.813 484.545 325.023 484.751 326.355L486.185 326.877C486.567 327.989 485.707 335.021 485.155 336.268C484.454 337.853 482.65 339.088 482.322 340.735C483.139 340.751 483.336 340.661 484.063 341.092C484.104 342.832 483.968 344.518 483.809 346.247C481.215 348.105 479.458 350.882 478.135 353.738C477.357 353.964 476.627 354.188 475.819 354.284L475.544 354.609C472.257 349.823 475.948 339.9 475.522 334.277C475.413 332.844 475.403 332.257 474.324 331.339C473.653 332.016 473.047 332.488 472.23 332.978C470.413 332.805 470.355 332.262 469.2 330.917C468.214 328.528 468.329 326.108 466.703 323.929C465.266 323.206 465.124 323.381 463.614 323.706C465.025 320.144 465.641 316.853 466.116 313.06L466.346 308.355C465.52 306.11 466.998 303.975 465.716 301.869Q467.123 297.86 468.374 293.8L468.522 292.448Z"/>
	<path fill="#896332" transform="matrix(0.275391 0 0 0.276042 -0.00012207 -3.05176e-05)" d="M477.84 324.988C479.242 325.514 479.983 325.854 480.921 327.04C481.915 330.582 479.012 333.974 478.102 337.38C478.077 337.471 478.049 337.561 478.023 337.652Q478.126 331.317 477.84 324.988Z"/>
	<path fill="#172866" transform="matrix(0.275391 0 0 0.276042 -0.00012207 -3.05176e-05)" d="M468.374 293.8C468.53 299.262 472.371 304.648 473.994 309.876C475.537 314.849 476.464 319.977 477.84 324.988Q478.126 331.317 478.023 337.652C477.776 343.25 476.631 348.749 475.819 354.284L475.544 354.609C472.257 349.823 475.948 339.9 475.522 334.277C475.413 332.844 475.403 332.257 474.324 331.339C473.653 332.016 473.047 332.488 472.23 332.978C470.413 332.805 470.355 332.262 469.2 330.917C468.214 328.528 468.329 326.108 466.703 323.929C465.266 323.206 465.124 323.381 463.614 323.706C465.025 320.144 465.641 316.853 466.116 313.06L466.346 308.355C465.52 306.11 466.998 303.975 465.716 301.869Q467.123 297.86 468.374 293.8Z"/>
	<path fill="#1C3880" transform="matrix(0.275391 0 0 0.276042 -0.00012207 -3.05176e-05)" d="M466.116 313.06C468.339 312.907 470.824 312.408 472.867 313.437C473.701 314.488 473.973 314.948 473.852 316.323C473.509 320.209 471.255 327.601 469.2 330.917C468.214 328.528 468.329 326.108 466.703 323.929C465.266 323.206 465.124 323.381 463.614 323.706C465.025 320.144 465.641 316.853 466.116 313.06Z"/>
	<defs>
		<linearGradient id="gradient_1" gradientUnits="userSpaceOnUse" x1="308.40283" y1="257.13742" x2="413.05856" y2="392.14954">
			<stop offset="0" stop-color="#1290A6"/>
			<stop offset="1" stop-color="#1678B1"/>
		</linearGradient>
	</defs>
	<path fill="url(#gradient_1)" transform="matrix(0.275391 0 0 0.276042 -0.00012207 -3.05176e-05)" d="M276.462 123.164C274.051 124.76 271.901 125.418 269.019 125.756C268.044 128.821 267.71 131.603 267.117 134.717C268.163 135.2 268.949 135.673 269.574 136.67C272.401 141.178 274.194 146.717 276.652 151.482C279.247 156.512 282.577 161.146 284.996 166.262C286.615 168.412 288.181 170.714 290.113 172.593C293.354 177.972 297.381 181.975 301.155 186.895C305.389 192.52 309.527 197.683 315.432 201.675C320.772 206.296 327.156 212.174 333.571 215.135C342.818 221.182 353.178 227.494 363.496 231.466C368.109 233.241 372.964 234.433 377.643 236.031C380.581 237.034 383.936 238.915 386.981 239.302C393.542 240.27 399.767 241.821 406.086 243.817C408.244 244.403 410.597 245.153 412.824 245.347L417.599 246.343L419.944 246.817C425.46 247.221 431.26 250.126 436.37 252.158C438.633 253.189 441.018 254.142 443.177 255.373C452.046 260.035 460.457 266.885 465.67 275.564C466.835 278.615 468.075 281.304 467.899 284.641C467.946 287.297 468.092 289.825 468.522 292.448L468.374 293.8Q467.123 297.86 465.716 301.869C466.998 303.975 465.52 306.11 466.346 308.355L466.116 313.06C465.641 316.853 465.025 320.144 463.614 323.706C460.067 330.732 455.446 336.513 451.241 343.088C441.897 357.699 434 374.045 416.26 379.937Q413.518 380.861 410.685 381.453C405.808 413.765 400.699 425.176 380.242 451.046C375.096 457.552 370.332 464.539 364.111 470.079C362.06 463.18 360.277 455.58 356.387 449.441C353.228 444.454 349.094 441.867 343.404 440.599C333.542 442.928 323.836 446.084 314.178 449.139C300.845 452.798 282.489 458.062 268.711 454.735C247.455 449.601 260.076 428.797 253.66 415.541C250.587 409.191 243.031 408.404 239.954 402.789C238.031 399.279 239.501 394.875 240.472 391.29C240.555 389.79 240.154 388.82 239.584 387.446C237.682 386.608 236.122 385.223 234.517 383.929C234.432 383.831 234.346 383.735 234.262 383.636L233.846 383.141C232.261 381.291 231.241 379.554 230.16 377.374C231.919 372.645 234.831 369.301 238.009 365.473C237.476 363.292 236.927 360.983 235.914 358.966C231.903 350.981 223.468 350.699 216.028 348.007C212.013 346.553 208.324 344.439 206.503 340.363C204.084 334.944 206.904 329.791 210.141 325.398C213.076 321.415 216.309 317.613 219.017 313.472C227.345 300.737 238.654 277.922 235.762 262.634C233.927 252.937 229.413 244.225 228.384 234.23C225.977 210.852 232.809 187.827 241.032 166.271C239.849 163.691 239.322 160.816 239.141 157.997C238.349 145.651 246.36 135.98 254.019 127.291C261.457 125.59 268.838 123.757 276.462 123.164Z"/>
	<path fill="#1691A8" transform="matrix(0.275391 0 0 0.276042 -0.00012207 -3.05176e-05)" d="M345.015 292.773L345.945 293.529C345.608 295.115 344.125 295.991 342.931 296.978C342.209 296.332 342.279 296.191 342.113 295.219C342.739 293.949 343.832 293.472 345.015 292.773Z"/>
	<path fill="#1691A8" transform="matrix(0.275391 0 0 0.276042 -0.00012207 -3.05176e-05)" d="M376.054 306.497C377.399 306.415 378.352 306.344 379.605 306.883C380.073 308.159 379.876 308.556 379.606 309.857C377.949 309.477 376.742 309.382 375.7 308.004L376.054 306.497Z"/>
	<path fill="#14A2AE" transform="matrix(0.275391 0 0 0.276042 -0.00012207 -3.05176e-05)" d="M390.96 244.627C392.178 244.934 393.003 245.26 394.048 245.964C394.542 247.4 394.354 247.684 393.978 249.108L392.236 249.697L391.456 249.092Q391.226 246.857 390.96 244.627Z"/>
	<path fill="#157AAB" transform="matrix(0.275391 0 0 0.276042 -0.00012207 -3.05176e-05)" d="M327.513 271.81C328.637 272.25 329.129 272.647 329.969 273.517C330.551 275.008 330.234 276.34 330.005 277.867C329.425 277.941 329.047 277.816 328.485 277.68C327.546 275.863 327.625 273.816 327.513 271.81Z"/>
	<path fill="#157AAB" transform="matrix(0.275391 0 0 0.276042 -0.00012207 -3.05176e-05)" d="M319.202 359.248C319.403 359.341 319.611 359.423 319.806 359.528C321.629 360.512 323.319 363.21 323.712 365.18C322.08 364.624 320.751 364.198 319.405 363.067C318.733 361.411 318.871 361.034 319.202 359.248Z"/>
	<path fill="#157AAB" transform="matrix(0.275391 0 0 0.276042 -0.00012207 -3.05176e-05)" d="M331.942 266.944C333.586 267.977 335.337 267.841 337.086 268.635C337.294 270.092 336.774 270.57 336.084 271.84L335.297 272.652L334.552 272.511L331.942 266.944Z"/>
	<path fill="#020931" transform="matrix(0.275391 0 0 0.276042 -0.00012207 -3.05176e-05)" d="M465.716 301.869C466.998 303.975 465.52 306.11 466.346 308.355C464.964 309.136 463.583 310.002 462.133 310.647C463.079 307.659 464.486 304.754 465.716 301.869Z"/>
	<path fill="#157AAB" transform="matrix(0.275391 0 0 0.276042 -0.00012207 -3.05176e-05)" d="M331.717 311.623C333.331 312.367 334.47 312.481 335.591 313.922C334.914 315.492 334.083 315.87 332.753 316.827C332.013 317.434 331.462 317.516 330.549 317.704C330.025 317.164 329.954 317.263 329.875 316.44C329.688 314.493 330.474 313.037 331.717 311.623Z"/>
	<path fill="#157AAB" transform="matrix(0.275391 0 0 0.276042 -0.00012207 -3.05176e-05)" d="M363.608 305.543L363.759 305.924L362.942 306.421C361.602 306.16 360.117 306.068 359.157 305.01C358.652 303.752 358.671 303.767 359.089 302.474C360.088 301.53 360.574 301.268 361.947 301.115C363.205 301.676 363.283 301.681 363.953 302.875L365.567 303.245L365.715 303.867L363.608 305.543Z"/>
	<path fill="#1691A8" transform="matrix(0.275391 0 0 0.276042 -0.00012207 -3.05176e-05)" d="M363.953 302.875L365.567 303.245L365.715 303.867L363.608 305.543C362.774 305.951 362.444 305.799 361.54 305.731L360.97 304.975C361.706 303.424 362.397 303.492 363.953 302.875Z"/>
	<path fill="#157AAB" transform="matrix(0.275391 0 0 0.276042 -0.00012207 -3.05176e-05)" d="M428.702 265.771Q428.509 267.744 428.288 269.715L428.063 258.58C429.178 257.229 431.918 257.367 433.667 257.186C432.533 261.382 429.639 261.998 428.78 265.512C428.759 265.6 428.728 265.685 428.702 265.771Z"/>
	<path fill="#1FB5BA" transform="matrix(0.275391 0 0 0.276042 -0.00012207 -3.05176e-05)" d="M381.856 247.121L383.736 247.5C385.316 249.043 383.72 248.478 384.016 249.877C384.172 250.615 385.074 251.936 385.44 252.648C383.887 252.483 382.381 252.485 380.821 252.523C379.602 253.431 378.778 254.196 377.245 254.339L377.068 253.512C377.831 252.18 378.608 250.548 379.993 249.765C380.83 249.293 381.357 247.982 381.856 247.121Z"/>
	<path fill="#157AAB" transform="matrix(0.275391 0 0 0.276042 -0.00012207 -3.05176e-05)" d="M347.041 305.287L347.589 305.266C348.751 305.861 348.841 305.942 349.478 307.08C349.601 308.664 349.391 309.901 348.368 311.172C347.266 312.54 346.211 312.406 344.554 312.591L344.328 312.95L343.478 312.548C343.338 310.971 343.235 309.358 343.802 307.843C344.427 306.173 345.535 305.989 347.041 305.287Z"/>
	<path fill="#1691A8" transform="matrix(0.275391 0 0 0.276042 -0.00012207 -3.05176e-05)" d="M361.867 283.658C361.927 283.66 361.988 283.654 362.048 283.664C364.886 284.142 366.736 287.244 368.337 289.375L362.338 291.964C359.325 291.618 359.727 292.949 357.461 292.943C357.234 292.555 357.159 292.471 357.013 292.088C356.344 290.33 357.251 287.13 358.105 285.503C358.878 284.031 360.408 284.011 361.867 283.658Z"/>
	<path fill="#1691A8" transform="matrix(0.275391 0 0 0.276042 -0.00012207 -3.05176e-05)" d="M419.944 246.817C425.46 247.221 431.26 250.126 436.37 252.158C438.633 253.189 441.018 254.142 443.177 255.373C441.64 255.705 439.993 255.815 438.9 257.034C438.613 258.734 439.49 260.473 440.051 262.063C438.072 262.203 435.33 262.025 433.594 263.015C433.257 264.235 432.935 265.344 432.35 266.471C431.243 266.938 430.717 266.973 429.596 266.397C429.172 266.18 429.041 266.048 428.702 265.771C428.728 265.685 428.759 265.6 428.78 265.512C429.639 261.998 432.533 261.382 433.667 257.186L433.63 256.345C431.035 254.391 428.607 252.855 425.422 252.07C424.624 251.874 424.055 251.771 423.374 251.288L423.998 251.01C428.003 251.56 430.838 253.346 434.179 255.5L441.255 255.5C435.109 252.176 424.891 250.239 419.944 246.817Z"/>
	<path fill="#1691A8" transform="matrix(0.275391 0 0 0.276042 -0.00012207 -3.05176e-05)" d="M288.791 380.871L289.304 379.928C290.202 379.76 290.578 379.954 291.388 380.343L291.491 378.065C290.919 377.586 290.32 377.164 289.709 376.737L290.124 376.216L291.623 376.15C292.678 379.45 292.443 383.547 292.694 387.014C293.053 391.981 293.622 396.657 294.868 401.493C296.744 408.773 299.444 415.676 302.265 422.633C303.837 426.511 305.742 430.453 306.777 434.512C301.175 428.382 295.063 409.326 293.158 400.791C292.273 396.822 292.077 392.355 290.873 388.518C290.346 386.837 288.907 385.726 288.305 384.101C289.101 383.438 290.136 382.737 290.552 381.76C290.839 381.086 290.794 381.376 290.484 380.641L288.791 380.871Z"/>
	<path fill="#157AAB" transform="matrix(0.275391 0 0 0.276042 -0.00012207 -3.05176e-05)" d="M432.721 275.379C432.977 276.036 432.814 275.867 433.295 276.278C433.398 276.366 433.509 276.445 433.617 276.529C432.625 279.048 431.288 282.354 431.415 285.063L432.057 285.227C432.922 284.332 433.79 283.39 434.735 282.579C436.128 281.382 437.806 280.398 439.713 280.643C443.024 281.068 445.656 284.897 447.461 287.389Q447.7 291.551 448.04 295.705L447.319 293.066C446.943 293.78 446.89 294.641 446.753 295.434C446.273 292.571 445.918 289.352 444.788 286.669C443.998 284.794 443.102 283.759 441.227 282.99C439.813 283.011 439.086 283.08 437.893 283.866C435.661 286.08 433.489 288.362 431.292 290.611C432.875 292.503 434.047 294.406 434.838 296.743C436.033 300.272 436.989 305.582 435.249 309.08C434.107 307.07 435.089 303.773 434.334 301.491C433.272 298.279 430.745 295.619 429.644 292.375C427.765 286.833 430.335 280.338 432.721 275.379Z"/>
	<path fill="#157AAB" transform="matrix(0.275391 0 0 0.276042 -0.00012207 -3.05176e-05)" d="M318.171 279.881C319.154 281.222 318.615 282.613 318.48 284.234C320.054 285.739 322.751 284.226 324.949 284.969C325.013 286.838 323.277 287.501 323.322 289.465C324.58 290.368 327.623 290.104 329.22 290.316C331.011 292.358 332.577 295.357 333.039 298.05C332.366 298.222 331.945 297.75 331.357 297.422L330.326 297.73C330.042 298.675 329.866 299.18 329.187 299.932C327.582 299.638 327.23 298.772 326.271 297.551C324.631 300.784 324.76 307.692 321.549 309.818C320.083 310.788 317.696 310.869 316.697 312.344C317.833 312.65 318.799 312.925 319.81 313.537L320.053 314.601C317.806 319.487 321.411 318.101 321.31 321.595C320.392 320.478 319.621 319.405 318.453 318.53L317.174 319.77C315.506 319.774 314.176 318.918 312.723 318.182C313.759 316.75 316.922 317.053 318.744 316.343C319.435 315.312 319.531 315.39 319.295 314.19C317.488 312.775 314.935 312.413 312.743 311.844C315.503 311.351 318.794 311.092 321.258 309.732C321.567 308.689 321.492 308.713 321.022 307.717C319.023 306.928 316.566 308.251 314.38 308.162L314.054 307.504L315.435 305.967L315.276 305.151C313.367 304.769 311.099 306.369 309.386 307.242L308.683 306.955L308.931 306.195C311.164 304.821 314.122 304.429 316.671 303.856L316.427 303.283C315.25 302.784 314.234 302.856 312.967 302.883L312.405 302.898C313.858 297.924 311.922 299.196 312.224 296.318C314.032 296.53 315.536 297.62 317.353 297.076C319.004 294.909 316.256 285.367 318.171 279.881Z"/>
	<path fill="#020931" transform="matrix(0.275391 0 0 0.276042 -0.00012207 -3.05176e-05)" d="M462.133 310.647C463.583 310.002 464.964 309.136 466.346 308.355L466.116 313.06C465.641 316.853 465.025 320.144 463.614 323.706C460.067 330.732 455.446 336.513 451.241 343.088C441.897 357.699 434 374.045 416.26 379.937Q413.518 380.861 410.685 381.453C405.808 413.765 400.699 425.176 380.242 451.046C375.096 457.552 370.332 464.539 364.111 470.079C362.06 463.18 360.277 455.58 356.387 449.441C353.228 444.454 349.094 441.867 343.404 440.599C348.46 436.897 354.262 434.299 359.806 431.432C368.76 426.802 377.593 421.746 385.282 415.168C403.408 399.664 407.945 377.745 412.105 355.488C413.013 350.629 413.519 344.281 416.372 340.138C417.128 339.041 418.039 338.175 419.412 338.029C422.681 337.681 427.292 342.684 429.55 344.661C444.964 339.719 454.828 324.183 462.133 310.647Z"/>
	<path fill="#14A2AE" transform="matrix(0.275391 0 0 0.276042 -0.00012207 -3.05176e-05)" d="M276.462 123.164C274.051 124.76 271.901 125.418 269.019 125.756C268.044 128.821 267.71 131.603 267.117 134.717C268.163 135.2 268.949 135.673 269.574 136.67C272.401 141.178 274.194 146.717 276.652 151.482C279.247 156.512 282.577 161.146 284.996 166.262C286.615 168.412 288.181 170.714 290.113 172.593C293.354 177.972 297.381 181.975 301.155 186.895C305.389 192.52 309.527 197.683 315.432 201.675C320.772 206.296 327.156 212.174 333.571 215.135C342.818 221.182 353.178 227.494 363.496 231.466C368.109 233.241 372.964 234.433 377.643 236.031C380.581 237.034 383.936 238.915 386.981 239.302C386.346 240.527 385.921 241.978 384.526 242.492C380.274 244.063 374.207 243.42 370.416 245.386L371.126 247.078C370.545 248.378 370.071 249.035 368.974 249.949L368.081 249.759C367.658 248.841 367.262 247.932 366.899 246.989C366.775 247.087 366.656 247.193 366.527 247.283C365.162 248.242 364.29 248.368 362.679 248.156C362.062 246.999 362.315 246.57 362.516 245.301C360.669 245.362 360.821 247.3 358.675 247.25C358.407 245.833 358.247 244.381 357.515 243.119L356.801 243.203C355.922 245.971 358.165 248.882 357.433 251.627C354.045 252.74 349.492 253.954 345.918 253.876C345.304 252.936 345.155 251.977 344.934 250.899C344.323 250.265 344.151 249.797 343.245 249.733C342.647 249.691 342.33 249.63 341.799 249.396L340.971 247.019L340.66 248.967C338.903 250.899 336.392 250.562 334.834 252.381C335.085 253.057 335.005 253.101 335.623 253.549C336.687 254.321 337.603 254.844 337.975 256.176C337.426 257.128 337.079 257.542 335.948 257.778C335.652 257.84 334.838 257.904 334.555 257.933C332.491 258.143 331.418 258.864 329.957 260.266L330.293 260.677C331.637 260.804 333.247 260.659 334.261 261.557C333.639 262.717 333.471 262.638 332.214 263.029C329.952 263.734 325.992 265.006 323.737 264.712C323.113 261.849 327.953 259.856 325.521 256.48L324.756 256.241L324.419 256.685C324.037 257.182 323.641 257.66 323.235 258.137L322.465 257.789L322.298 255.711C319.472 254.433 309.287 258.439 305.211 258.784L304.481 264.398C302.436 263.68 299.494 262.163 297.38 263.145C295.985 263.793 294.866 265.337 293.78 266.409C293.177 267.006 293.407 266.721 292.98 267.431L296.457 266.893C297.265 265.825 298.036 265.093 299.098 264.28C300.617 265.216 302.411 266.006 303.161 267.695C302.851 269.744 302.762 270.421 303.919 272.152C307.396 273.785 310.978 275.197 313.403 278.321L313.689 279.643C313.052 280.616 312.71 281.178 311.533 281.486C309.603 281.992 305.484 281.493 304.098 282.908C304.541 283.736 304.921 283.993 305.664 284.5C307.408 285.69 308.366 287.974 308.712 290.017C308.813 290.612 308.766 291.188 308.728 291.786L308.188 292.271C307.622 292.786 307.162 293.315 306.686 293.913L307.522 295.24C307.142 296.66 305.975 297.267 304.85 298.087C304.904 298.917 305.123 299.387 305.466 300.119C306.099 301.471 306.287 302.743 305.729 304.162C305.637 304.396 305.533 304.624 305.435 304.854C303.151 305.336 297.65 302.418 296.072 303.795C296.461 304.638 297.555 306.393 297.265 307.215C296.965 308.063 296.507 308.748 296.02 309.494C296.539 310.218 296.734 310.607 297.748 310.621C298.557 310.631 299.728 310.218 300.526 310.016L300.959 310.32C299.991 311.284 299.024 312.188 297.966 313.052C300.679 314.026 300.806 311.515 304.213 314.233C305.214 314.235 306.136 314.177 307.129 314.049C307.801 314.566 307.895 314.506 308.189 315.348C308.926 317.455 309.494 318.489 311.331 319.849C311.917 321.93 312.834 324.349 312.966 326.496L312.125 326.928L311.04 326.373L311.048 327.15L311.37 326.611L309.794 324.948C307.776 326.572 304.552 329.455 301.818 329.316C300.936 329.271 300.128 328.906 299.612 328.178C299.045 327.377 298.878 326.146 298.659 325.199L298.193 325.392C298.587 329.901 301.951 345.154 300.726 347.982C299.452 348.602 298.484 348.709 297.874 350.026L298.139 351.759L297.591 352.279C296.265 352.222 295.497 351.625 294.433 350.919C292.963 355.038 295.342 361.344 292.688 364.928C291.558 365.19 291.138 365.037 290.097 364.643C288.782 363.098 288.419 361.248 288.295 359.255L287.537 360.065C286.481 359.981 285.6 359.818 284.579 359.533C282.577 360.874 283.384 367.308 279.851 366.689L278.041 365.159L277.369 365.349L277.24 366.221L279.55 369.214C279.369 370.329 278.846 371.14 278.285 372.095C278.486 374.587 281.032 375.362 281.138 377.774C281.175 378.614 280.172 382.186 280.369 382.364C281.789 381.461 283.1 379.911 284.747 379.797C285.208 380.554 285.554 380.857 285.311 381.787C284.973 383.083 283.362 384.779 282.524 385.827C284.354 387.769 286.183 389.704 287.921 391.731L288.58 391.503C288.188 390.895 287.828 390.535 287.296 390.067C286.422 389.298 285.984 388.474 285.914 387.298C285.818 385.682 286.167 383.484 287.306 382.282C287.517 382.059 287.755 381.863 287.977 381.651C288.143 381.494 288.301 381.328 288.467 381.169C288.573 381.068 288.683 380.971 288.791 380.871L290.484 380.641C290.794 381.376 290.839 381.086 290.552 381.76C290.136 382.737 289.101 383.438 288.305 384.101C288.907 385.726 290.346 386.837 290.873 388.518C292.077 392.355 292.273 396.822 293.158 400.791C295.063 409.326 301.175 428.382 306.777 434.512C308.855 438.846 311.039 445.615 314.178 449.139C300.845 452.798 282.489 458.062 268.711 454.735C247.455 449.601 260.076 428.797 253.66 415.541C250.587 409.191 243.031 408.404 239.954 402.789C238.031 399.279 239.501 394.875 240.472 391.29C240.555 389.79 240.154 388.82 239.584 387.446C237.682 386.608 236.122 385.223 234.517 383.929C234.432 383.831 234.346 383.735 234.262 383.636L233.846 383.141C232.261 381.291 231.241 379.554 230.16 377.374C231.919 372.645 234.831 369.301 238.009 365.473C237.476 363.292 236.927 360.983 235.914 358.966C231.903 350.981 223.468 350.699 216.028 348.007C212.013 346.553 208.324 344.439 206.503 340.363C204.084 334.944 206.904 329.791 210.141 325.398C213.076 321.415 216.309 317.613 219.017 313.472C227.345 300.737 238.654 277.922 235.762 262.634C233.927 252.937 229.413 244.225 228.384 234.23C225.977 210.852 232.809 187.827 241.032 166.271C239.849 163.691 239.322 160.816 239.141 157.997C238.349 145.651 246.36 135.98 254.019 127.291C261.457 125.59 268.838 123.757 276.462 123.164Z"/>
	<path fill="#1FB5BA" transform="matrix(0.275391 0 0 0.276042 -0.00012207 -3.05176e-05)" d="M290.509 203.469C291.554 203.687 293.015 204.218 293.728 205.032C294.545 205.965 294.398 206.376 294.379 207.547C293.576 207.179 292.673 206.817 291.949 206.312C290.736 205.465 290.652 204.864 290.509 203.469Z"/>
	<path fill="#1FB5BA" transform="matrix(0.275391 0 0 0.276042 -0.00012207 -3.05176e-05)" d="M272.19 258.937C273.097 258.894 273.962 258.928 274.838 259.181C276.411 259.633 277.303 260.637 278.12 261.989C276.797 262.432 276.097 262.487 274.731 262.22C273.354 261.285 272.904 260.419 272.19 258.937Z"/>
	<path fill="#1691A8" transform="matrix(0.275391 0 0 0.276042 -0.00012207 -3.05176e-05)" d="M340.66 248.967C339.86 248.123 338.936 247.346 338.081 246.555C338.105 246.389 338.092 246.213 338.154 246.057C338.628 244.852 339.901 243.216 341.02 242.58L341.466 243.203C341.384 244.505 341.209 245.736 340.971 247.019L340.66 248.967Z"/>
	<path fill="#1FB5BA" transform="matrix(0.275391 0 0 0.276042 -0.00012207 -3.05176e-05)" d="M292.98 267.431L296.457 266.893C296.5 268.4 296.364 269.505 295.867 270.931L294.955 271.729C293.567 271.545 293.589 271.401 292.688 270.417C292.395 268.929 292.143 268.764 292.98 267.431Z"/>
	<path fill="#1691A8" transform="matrix(0.275391 0 0 0.276042 -0.00012207 -3.05176e-05)" d="M302.676 196.331C303.501 196.397 303.996 196.678 304.631 197.18C305.765 198.077 306.561 198.918 306.745 200.377L305.891 201.123C304.245 200.622 302.371 200.258 301.002 199.186C301.046 197.734 301.726 197.388 302.676 196.331Z"/>
	<path fill="#1FB5BA" transform="matrix(0.275391 0 0 0.276042 -0.00012207 -3.05176e-05)" d="M252.355 208.966C253.735 209.161 255.111 209.208 256.255 210.073C256.285 211.803 255.034 213.207 254.151 214.68C253.618 214.817 253.443 214.583 252.965 214.347C252.436 213.527 251.825 212.678 251.596 211.718C251.263 210.325 251.617 210.114 252.355 208.966Z"/>
	<path fill="#1FB5BA" transform="matrix(0.275391 0 0 0.276042 -0.00012207 -3.05176e-05)" d="M264.579 191.886C265.191 192.125 265.368 192.236 265.765 192.795C266.145 193.331 266.111 193.167 265.963 193.819C265.564 195.579 263.164 196.869 261.738 197.7C261.039 197.45 260.778 197.338 260.305 196.727C259.776 196.044 260.067 195.748 260.21 194.952C261.475 193.42 262.844 192.744 264.579 191.886Z"/>
	<path fill="#1FB5BA" transform="matrix(0.275391 0 0 0.276042 -0.00012207 -3.05176e-05)" d="M306.605 225.631C308.905 227.047 310.516 226.771 313.084 226.583L313.346 227.007L311.115 228.853C310.251 229.16 309.413 229.154 308.508 229.149C306.986 229.141 305.026 229.329 303.924 228.231C304.628 226.79 305.298 226.517 306.605 225.631Z"/>
	<path fill="#1691A8" transform="matrix(0.275391 0 0 0.276042 -0.00012207 -3.05176e-05)" d="M270.069 372.417C270.739 372.351 271.321 372.303 271.992 372.36C273.723 372.507 276.362 373.23 277.463 374.615C278.19 375.53 277.933 375.905 277.766 376.99C275.682 376.966 271.954 375.952 270.495 374.445C269.879 373.809 270.078 373.259 270.069 372.417Z"/>
	<path fill="#1FB5BA" transform="matrix(0.275391 0 0 0.276042 -0.00012207 -3.05176e-05)" d="M261.263 173.025C264.171 172.969 267.972 174.734 270.571 176.049L270.733 176.686C269.65 176.679 268.805 176.599 267.846 177.195C268.078 178.358 268.325 178.492 269.131 179.314L270.437 178.724L270.482 178.65L271.062 178.835C270.153 178.928 270.205 179.004 269.529 179.526C268.662 179.31 269.044 179.303 268.391 179.409L269.519 179.428C270.35 180.555 270.26 180.741 270.272 182.085L269.483 182.787L268.627 182.594L270.06 181.159L269.591 180.41L268.44 180.618C267.274 180.071 266.537 178.549 265.878 177.462C264.583 175.325 263.301 174.372 261.263 173.025Z"/>
	<path fill="#157AAB" transform="matrix(0.275391 0 0 0.276042 -0.00012207 -3.05176e-05)" d="M234.517 383.929C237.265 383.508 240.243 382.914 242.613 384.819C243.515 385.544 244.366 386.492 244.99 387.466C243.107 387.152 241.446 386.831 239.584 387.446C237.682 386.608 236.122 385.223 234.517 383.929Z"/>
	<path fill="#157AAB" transform="matrix(0.275391 0 0 0.276042 -0.00012207 -3.05176e-05)" d="M251.978 162.419L253.55 162.36L254.116 163.007C253.574 164.866 250.938 167.182 249.7 168.816C249.016 168.235 248.271 167.654 247.662 166.995C246.898 166.167 246.873 165.737 246.995 164.663C248.288 163.349 250.26 162.97 251.978 162.419Z"/>
	<path fill="#1FB5BA" transform="matrix(0.275391 0 0 0.276042 -0.00012207 -3.05176e-05)" d="M270.069 214.067L270.983 214.181C272.17 215.849 273.505 218.041 273.491 220.129L272.779 220.712C271.719 220.399 270.922 220.136 269.799 220.32L269.805 221.108L271.934 223.082L272.098 223.492C270.959 223.87 269.959 223.441 268.873 222.92C267.734 222.374 267.36 221.842 266.882 220.717C267.154 218.657 269.446 216.785 270.577 215.019L270.069 214.067Z"/>
	<path fill="#1FB5BA" transform="matrix(0.275391 0 0 0.276042 -0.00012207 -3.05176e-05)" d="M300.869 242.819C302.103 242.646 303.362 243.447 304.396 244.058C304.897 245.337 304.892 245.283 304.416 246.573C303.238 247.431 302.295 247.743 300.886 248.087C299.449 248.503 298.799 248.888 297.34 248.467C296.802 246.996 296.891 246.359 297.571 244.958C298.337 243.377 299.304 243.379 300.869 242.819Z"/>
	<path fill="#172866" transform="matrix(0.275391 0 0 0.276042 -0.00012207 -3.05176e-05)" d="M250.991 339.266C251.758 339.973 251.998 340.54 252.274 341.557C252.884 343.8 252.655 345.82 251.448 347.828C249.268 351.454 246.157 353.201 242.132 354.086C241.475 353.876 241.335 353.681 240.87 353.196L241.274 352.562C243.607 351.533 246.12 350.178 247.978 348.409C250.728 345.792 250.969 342.832 250.991 339.266Z"/>
	<path fill="#157AAB" transform="matrix(0.275391 0 0 0.276042 -0.00012207 -3.05176e-05)" d="M250.701 151.287L251.325 152.906C252.745 153.457 254.558 153.882 255.447 155.185C255.139 156.691 254.461 158.549 253.075 159.381C252.424 159.772 251.746 159.873 251.003 159.673C250.159 159.446 249.324 158.964 248.532 158.597L247.447 158.102L245.584 159.362C246.967 156.523 248.94 153.905 250.701 151.287Z"/>
	<path fill="#1FB5BA" transform="matrix(0.275391 0 0 0.276042 -0.00012207 -3.05176e-05)" d="M309.161 214.587C310.857 214.876 312.727 215.285 314.36 215.82C315.659 216.245 316.18 216.837 316.802 218.015C317.095 219.786 316.283 221.235 315.624 222.84C314.835 222.991 314.481 223.228 313.728 222.867C311.703 221.897 309.376 219.269 308.769 217.114C308.421 215.88 308.561 215.709 309.161 214.587Z"/>
	<path fill="#020931" transform="matrix(0.275391 0 0 0.276042 -0.00012207 -3.05176e-05)" d="M224.795 340.541Q227.962 340.46 231.109 340.818C233.993 341.119 237.836 341.524 239.772 343.893C239.955 345.49 239.659 345.532 238.74 346.778C238.616 346.724 238.494 346.668 238.369 346.618C238.161 346.534 237.95 346.46 237.741 346.379C233.929 344.9 226.001 346.303 223.413 343.379C223.378 341.922 223.904 341.653 224.795 340.541Z"/>
	<path fill="#1C3880" transform="matrix(0.275391 0 0 0.276042 -0.00012207 -3.05176e-05)" d="M239.584 387.446C241.446 386.831 243.107 387.152 244.99 387.466C250.735 390.379 257.051 392.025 262.848 394.83C258.457 394.796 252.727 395.375 248.53 394.251C245.841 393.53 244.476 391.734 241.497 391.414C241.283 391.391 241.07 391.357 240.857 391.331C240.729 391.316 240.6 391.304 240.472 391.29C240.555 389.79 240.154 388.82 239.584 387.446Z"/>
	<path fill="#1FB5BA" transform="matrix(0.275391 0 0 0.276042 -0.00012207 -3.05176e-05)" d="M284.847 257.878C285.006 258.153 285.278 258.388 285.325 258.702C285.344 258.825 282.11 267.656 281.743 269.174C279.397 278.885 279.204 291.577 283.296 300.806C284.962 304.561 287.595 308.885 288.048 312.965C288.181 314.163 288.224 315.065 288.929 316.095C289.477 316.894 290.035 317.708 290.304 318.653C291.26 322.006 293.784 342.904 293.659 346.555L293.228 346.874L292.594 345.893C291.706 336.152 290.441 326.553 287.445 317.188C286.435 314.031 282.601 311.097 282.49 307.836C282.963 307.934 283.41 308.051 283.874 308.189L284.396 308.348C284.147 305.286 281.69 298.175 279.472 296.183L278.278 296.405L277.925 295.758C278.673 295.087 279.326 294.55 279.527 293.505C279.939 291.371 279.483 288.268 279.446 286.053C279.277 275.904 279.676 266.883 284.847 257.878Z"/>
	<path fill="#E84D1A" transform="matrix(0.275391 0 0 0.276042 -0.00012207 -3.05176e-05)" d="M276.462 123.164C274.051 124.76 271.901 125.418 269.019 125.756C268.044 128.821 267.71 131.603 267.117 134.717L264.276 133.197C260.366 139.856 254.657 144.86 250.701 151.287C248.94 153.905 246.967 156.523 245.584 159.362C243.93 161.565 242.503 163.944 241.032 166.271C239.849 163.691 239.322 160.816 239.141 157.997C238.349 145.651 246.36 135.98 254.019 127.291C261.457 125.59 268.838 123.757 276.462 123.164Z"/>
	<path fill="#EB8418" transform="matrix(0.275391 0 0 0.276042 -0.00012207 -3.05176e-05)" d="M264.276 133.197C264.723 130.711 262.542 129.655 261.829 127.472C263.509 125.822 266.755 125.924 269.019 125.756C268.044 128.821 267.71 131.603 267.117 134.717L264.276 133.197Z"/>
	<defs>
		<linearGradient id="gradient_2" gradientUnits="userSpaceOnUse" x1="683.94855" y1="201.50375" x2="684.06683" y2="455.53046">
			<stop offset="0" stop-color="#1369AF"/>
			<stop offset="1" stop-color="#08BEB2"/>
		</linearGradient>
	</defs>
	<path fill="url(#gradient_2)" transform="matrix(0.275391 0 0 0.276042 -0.00012207 -3.05176e-05)" d="M759.035 124.517C761.442 126.638 765.184 129.801 768.529 129.896C774.109 132.323 778.704 141.177 780.855 146.529C782.569 150.793 784.327 157.534 782.428 162.001C782.172 162.603 781.824 162.998 781.381 163.469C783.299 166.071 784.293 169.637 785.429 172.642C791.39 188.404 797.727 212.897 795.527 229.762C795.409 230.668 795.164 231.322 794.722 232.114C796.79 237.082 786.305 261.382 786.569 270.768C786.7 275.434 788.229 279.937 789.807 284.286C793.53 294.538 798.425 305.226 804.552 314.274C808.431 320.003 813.622 325.33 816.4 331.694C817.648 334.554 818.123 337.096 816.877 340.054C815.297 343.807 811.27 345.764 807.668 347.114C801.254 349.519 790.295 350.464 787.096 357.471C785.909 360.072 786.184 362.945 787.289 365.524C788.992 369.496 794.584 375.41 793.044 379.88C792.36 381.864 790.471 383.167 788.645 383.995C788.543 384.041 788.437 384.079 788.332 384.121C785.495 384.002 782.847 385.299 780.311 386.437C781.633 387.779 782.326 388.69 782.561 390.586L782.716 391.379C782.168 393.189 781.798 394.937 780.478 396.353L772.921 397.606C774.906 398.878 780.773 402.018 781.519 404.061C781.375 405.757 780.906 406.19 779.594 407.269C774.941 411.099 768.946 414.279 768.241 420.959C767.113 431.64 771.79 443.624 762.147 451.752C755.932 456.991 747.031 457.308 739.328 456.579C726.498 455.364 714.55 450.888 702.253 447.379C696.933 445.861 691.197 444.982 686.006 443.151C680.022 444.58 675.012 445.846 670.724 450.589C649.036 438.381 621.411 423.818 614.286 397.918C612.906 392.898 610.26 381.997 612.861 377.368C611.016 367.467 609.482 356.582 605.494 347.282C601.405 346.382 597.26 345.927 593.083 345.693C592.379 345.893 591.859 345.935 591.128 345.878C583.252 345.269 575.483 336.861 570.549 331.279C555.766 314.556 549.635 299.113 551.044 276.56L552.315 272.368C552.777 271.206 553.325 270.108 553.923 269.012C565.842 247.142 594.89 244.128 616.45 237.886C626.782 235.204 636.707 230.246 646.619 226.259L650.797 224.209C659.368 219.813 667.397 215.131 675.37 209.732C676.818 208.189 679.207 206.851 681.046 205.807C684.933 202.696 689.983 199.371 693.098 195.52C698.828 191.672 703.943 184.404 708.513 179.15C713.411 175.184 723.851 163.165 727.714 157.913C735.967 146.694 740.847 136.646 754.524 130.961C753.726 129.689 753.698 129.767 753.969 128.299C755.229 126.537 757.204 125.605 759.035 124.517Z"/>
	<path fill="#14A2AE" transform="matrix(0.275391 0 0 0.276042 -0.00012207 -3.05176e-05)" d="M610.95 350.328C612.3 350.741 613.193 351.024 613.899 352.238L613.352 353.174C612.215 353.381 611.539 353.435 610.409 353.2C609.992 351.984 610.47 351.49 610.95 350.328Z"/>
	<path fill="#14A2AE" transform="matrix(0.275391 0 0 0.276042 -0.00012207 -3.05176e-05)" d="M630.848 362.939C632.123 363.314 633.406 363.538 634.713 363.77L634.884 364.389L633.397 366.643C633.021 367.109 632.676 367.462 632.202 367.827L631.786 367.43C631.578 365.898 631.231 364.436 630.848 362.939Z"/>
	<path fill="#157AAB" transform="matrix(0.275391 0 0 0.276042 -0.00012207 -3.05176e-05)" d="M640.823 235.92C641.44 236.31 641.986 236.732 642.564 237.177C641.479 239.586 638.223 240.373 636.877 243.341L636.365 243.137C635.63 243.341 635.405 243.392 634.623 243.272C637.387 241.811 639.278 238.555 640.823 235.92Z"/>
	<path fill="#157AAB" transform="matrix(0.275391 0 0 0.276042 -0.00012207 -3.05176e-05)" d="M640.736 258.033C641.825 258.767 642.719 259.542 643.639 260.478L643.535 261.187L642.39 261.507C641.953 261.653 641.511 261.812 641.063 261.926C640.06 262.18 639.77 262.28 638.864 261.748C638.923 260.228 639.874 259.21 640.736 258.033Z"/>
	<path fill="#157AAB" transform="matrix(0.275391 0 0 0.276042 -0.00012207 -3.05176e-05)" d="M622.397 313.689C623.27 313.785 623.75 313.915 624.5 314.376C625.018 315.732 625.457 316.432 625.255 317.887L624.53 318.21L622.747 316.958C622.065 317.132 621.633 317.506 621.051 317.901L620.207 317.49C620.51 316.013 621.525 314.884 622.397 313.689Z"/>
	<path fill="#157AAB" transform="matrix(0.275391 0 0 0.276042 -0.00012207 -3.05176e-05)" d="M618.651 249.677L619.231 249.757C618.952 251.431 619.671 252.816 619.548 254.33L618.033 253.916L619.529 254.45L619.462 253.906C617.811 254.168 617.231 253.355 615.933 252.44C614.526 252.456 613.137 252.526 611.751 252.235C613.752 251.087 616.159 250.966 618.273 249.879C618.4 249.813 618.525 249.744 618.651 249.677Z"/>
	<path fill="#1C3880" transform="matrix(0.275391 0 0 0.276042 -0.00012207 -3.05176e-05)" d="M589.826 308.518C589.893 307.244 590.512 306.179 591.047 305.046C591.223 305.229 591.394 305.415 591.574 305.593C593.753 307.729 597.24 307.788 599.548 309.73L599.514 310.309C596.251 309.914 593.041 309.187 589.826 308.518Z"/>
	<path fill="#157AAB" transform="matrix(0.275391 0 0 0.276042 -0.00012207 -3.05176e-05)" d="M634.813 326.172C635.265 326.288 635.483 326.32 635.884 326.493C637.638 327.252 638.661 329.446 639.223 331.179C640.044 333.711 640.684 335.96 639.455 338.376C638.631 338.046 637.642 337.768 637.048 337.081C636.687 336.663 636.879 336.22 636.919 335.711C637.282 335.199 637.807 334.59 638.049 334.017C638.486 332.984 635.388 327.767 634.813 326.172Z"/>
	<path fill="#157AAB" transform="matrix(0.275391 0 0 0.276042 -0.00012207 -3.05176e-05)" d="M692.741 306.674C693.397 306.581 694.032 306.486 694.683 306.673C697.125 307.374 699.222 308.734 700.316 311.065C700.275 312.598 699.987 312.636 698.986 313.726C698.904 313.645 698.806 313.577 698.741 313.483C697.27 311.358 694.277 309.502 692.263 307.614L692.741 306.674Z"/>
	<path fill="#172866" transform="matrix(0.275391 0 0 0.276042 -0.00012207 -3.05176e-05)" d="M771.66 337.935L772.573 338.357C773.588 340.236 773.287 343.111 773.19 345.222C775.007 346.586 776.77 348.309 778.113 350.139L777.214 350.9C775.642 350.149 773.917 349.282 772.815 347.899C770.481 344.973 771.166 341.344 771.66 337.935Z"/>
	<path fill="#172866" transform="matrix(0.275391 0 0 0.276042 -0.00012207 -3.05176e-05)" d="M583.196 287.07C582.909 287.131 582.622 287.194 582.338 287.27L581.946 287.378C579.409 288.052 577.476 290.06 575.317 291.477C574.269 292.165 573.511 292.647 572.282 292.363C571.975 291.474 571.723 290.637 571.858 289.685C572.172 287.485 574.242 286.25 575.873 285.003C578.229 285.981 580.721 286.489 583.196 287.07Z"/>
	<path fill="#E84D1A" transform="matrix(0.275391 0 0 0.276042 -0.00012207 -3.05176e-05)" d="M600.64 338.121C602.522 341.084 604.134 344.041 605.494 347.282C601.405 346.382 597.26 345.927 593.083 345.693C595.699 343.248 598.306 340.845 600.64 338.121Z"/>
	<path fill="#157AAB" transform="matrix(0.275391 0 0 0.276042 -0.00012207 -3.05176e-05)" d="M634.171 303.99L634.903 303.777L635.196 304.749L633.888 305.942L634.003 306.783C634.806 307.626 635.602 308.344 636.002 309.466C634.718 310.058 632.784 309.465 631.371 309.283C630.727 311.24 630.521 311.949 628.955 313.387C628.097 311.987 628.251 309.636 628.071 308.003C627.416 306.748 626.439 306.262 625.261 305.579L624.738 305.279L624.751 305.012C626.769 303.202 631.488 304.071 634.171 303.99Z"/>
	<path fill="#157AAB" transform="matrix(0.275391 0 0 0.276042 -0.00012207 -3.05176e-05)" d="M685.335 305.51C685.846 305.399 686.477 305.216 687.012 305.224C688.302 305.242 688.828 305.94 689.673 306.762L689.486 307.473L686.05 307.986C685.444 309.033 685.506 309.131 685.639 310.348C686.853 311.855 688.474 312.364 690.207 313.094C689.89 313.777 689.557 313.693 688.877 313.944C687.023 313.476 685.779 311.448 684.322 310.233C683.285 312.073 682.527 314.078 681.32 315.815L680.213 315.947C679.676 315.325 679.146 314.688 678.755 313.96C678.156 312.844 677.715 311.299 678.124 310.135L679.031 309.853L680.802 310.907L681.395 310.719C681.231 310.484 681.07 310.246 680.899 310.015C680.749 309.81 680.593 309.61 680.44 309.408C681.136 308.438 681.558 308.085 682.619 307.537C684.767 308.25 686.183 307.299 688.103 306.41L687.882 306.009C685.21 305.796 682.618 307.103 679.808 306.91C681.384 305.972 683.543 305.834 685.335 305.51Z"/>
	<path fill="#1691A8" transform="matrix(0.275391 0 0 0.276042 -0.00012207 -3.05176e-05)" d="M616.37 274.811C618.638 274.629 619.809 276.996 621.376 278.231C622.314 278.97 622.396 278.903 623.535 278.775C623.31 277.168 621.736 276.205 621.069 274.661L622.252 274.542C623.828 275.395 625.61 278.256 626.241 279.938L625.486 280.342L623.715 279.531C622.394 280.217 621.395 281.135 620.291 282.124L618.892 282.035L618.085 282.043C617.628 282.853 617.257 283.455 616.589 284.119C616.428 283.95 616.041 283.548 615.928 283.398C614.246 281.158 611.643 280.846 609.758 279.001C609.055 278.313 609.139 278.114 609.198 277.21C611.826 276.873 614.011 280.195 616.718 279.807C616.7 279.696 616.699 279.581 616.664 279.474C616.247 278.175 613.82 276.562 612.693 275.759L612.293 275.477C613.37 274.746 615.097 274.881 616.37 274.811Z"/>
	<path fill="#157AAB" transform="matrix(0.275391 0 0 0.276042 -0.00012207 -3.05176e-05)" d="M616.45 237.886C626.782 235.204 636.707 230.246 646.619 226.259C646.036 228.019 645.144 229.593 644.162 231.158C639.517 232.517 632.17 233.222 628.515 236.403C628.437 236.595 628.362 236.788 628.28 236.978C628.051 237.511 627.89 237.82 627.527 238.248C624.883 238.22 622.215 238.107 619.588 238.439C618.305 238.601 617.581 238.518 616.45 237.886Z"/>
	<path fill="#020931" transform="matrix(0.275391 0 0 0.276042 -0.00012207 -3.05176e-05)" d="M791.188 339.247C793.152 339.187 795.169 339.071 797.095 339.537C798.521 339.883 799.464 340.455 800.192 341.723L799.789 342.577C796.763 344.363 792.535 344.452 789.112 344.697C787.846 345.235 785.256 345.727 783.892 345.613C782.827 345.525 782.665 345.256 782.028 344.502L782.404 343.315C785.048 340.51 787.557 340.054 791.188 339.247Z"/>
	<path fill="#1691A8" transform="matrix(0.275391 0 0 0.276042 -0.00012207 -3.05176e-05)" d="M687.2 376.834L689.815 378.152C692.755 377.713 698.521 376.791 701.141 378.365C701.875 378.806 701.742 378.935 701.964 379.695L701.485 380.27C700.347 380.371 699.404 380.451 698.344 380.929C698.125 382.135 698.886 383.197 699.393 384.299L699.016 384.932C695.827 383.899 693.819 379.773 690.412 378.433C689.533 378.087 688.532 377.799 687.626 378.311C686.934 378.702 686.734 380.877 685.889 381.562C684.332 382.822 681.694 382.787 679.89 383.705C678.506 384.408 678.093 388.477 677.536 390.153C677.299 390.867 677.169 390.752 676.533 391.074L673.964 390.002C672.917 390.861 674.577 392.392 674.087 393.817C672.659 393.691 671.844 393.22 670.633 392.479C665.938 387.901 665.853 390.983 661.84 388.735C661.092 387.664 660.76 387.399 660.711 386.063C662.392 384.555 664.854 385.813 666.391 384.451L665.417 383.237L665.974 383.031L666.98 383.701L666.985 384.654C665.418 385.897 663.38 385.548 661.572 386.388L661.47 387.267C662.046 388.037 662.516 388.645 663.28 389.246C664.477 389.101 665.476 388.769 666.605 388.352C668.947 389.153 670.58 391.495 672.594 392.93L673.052 392.697C672.924 391.692 672.688 390.672 672.971 389.68C674.345 389.465 674.982 389.858 676.27 390.334C677.618 388.552 678.07 385.333 678.625 383.148C680.392 382.61 682.611 382.232 684.264 381.475C686.151 380.612 686.635 378.635 687.2 376.834Z"/>
	<path fill="#157AAB" transform="matrix(0.275391 0 0 0.276042 -0.00012207 -3.05176e-05)" d="M675.37 209.732L675.627 210.496C676.633 209.963 677.355 209.444 678.207 208.688L678.711 208.845C675.899 211.74 672.68 214.617 670.395 217.948C671.048 219.22 672.146 220.812 672.093 222.267C670.961 222.942 669.249 223.201 667.96 223.585C667.669 223.672 667.129 223.72 666.811 223.754C666.323 222.309 668.899 219.447 667.642 218.761C660.323 219.997 659.131 229.746 650.797 224.209C659.368 219.813 667.397 215.131 675.37 209.732Z"/>
	<path fill="#020931" transform="matrix(0.275391 0 0 0.276042 -0.00012207 -3.05176e-05)" d="M575.873 285.003C579.887 282.657 583.909 283.329 588.347 283.571C591.304 286.056 594.731 288.679 595.076 292.853C595.409 296.891 592.713 301.445 591.047 305.046C590.512 306.179 589.893 307.244 589.826 308.518C589.854 309.053 589.898 309.583 589.934 310.117C590.159 313.438 591.16 316.577 592.047 319.77C582.85 306.213 595.669 301.877 592.615 294.041C591.098 290.149 586.686 288.676 583.196 287.07C580.721 286.489 578.229 285.981 575.873 285.003Z"/>
	<path fill="#E0242A" transform="matrix(0.275391 0 0 0.276042 -0.00012207 -3.05176e-05)" d="M761.493 392.942C768.111 391.187 774.209 389.632 780.311 386.437C781.633 387.779 782.326 388.69 782.561 390.586L782.716 391.379C782.168 393.189 781.798 394.937 780.478 396.353L772.921 397.606C770.459 394.989 764.881 393.978 761.493 392.942Z"/>
	<path fill="#157AAB" transform="matrix(0.275391 0 0 0.276042 -0.00012207 -3.05176e-05)" d="M707.752 308.931C708.867 310.174 709.016 311.668 710.713 312.368C711.892 312.125 713.077 311.894 714.277 311.79C716.894 311.562 719.106 311.579 721.21 313.362C716.533 313.983 718.777 310.551 710.007 313.73L708.657 313.084C708.824 314.125 708.877 314.617 708.509 315.643C707.3 316.15 705.827 315.62 704.584 315.348C703.296 316.799 702.223 317.464 700.462 318.162L699.904 318.379L699.983 318.813C700.749 319.848 701.504 320.626 702.688 321.186C704.413 322.001 705.854 321.822 707.594 321.207C707.079 319.701 706.395 319.456 706.701 317.777L707.721 317.282C708.075 317.425 708.275 317.48 708.578 317.681C709.914 318.563 710.882 320.991 711.144 322.505C711.388 323.921 711.224 324.446 710.457 325.606C708.647 325.874 706.867 326.268 705.071 326.614C701.913 327.221 699.197 328.009 696.364 326.036C696.242 325.952 696.123 325.862 696.002 325.775C694.61 326.734 694.982 329.158 693.942 330.585C693.468 331.235 693.728 331.018 692.854 331.195L692.335 330.52L693.344 329.034L692.814 328.361C690.698 328.343 688.513 330.077 686.256 330.354L685.738 329.797C686.324 328.354 688.197 327.546 689.492 326.679L689.447 326.277C688.585 326.141 687.938 326.374 687.181 326.773C685.901 327.449 684.977 328.418 684.578 329.806C685.224 330.936 685.939 332.146 686.25 333.414C686.479 334.346 686.699 334.721 686.185 335.547C685.553 335.164 685.017 334.795 684.464 334.301C682.934 332.937 681.423 331.923 679.673 330.867L679.591 330.047L680.589 329.18C681.239 328.028 682.02 326.971 682.637 325.792C681.406 325.478 680.449 325.34 679.76 324.252L680.665 323.393C680.81 321.954 679.674 321.495 679.078 320.231C678.782 319.604 679.456 318.475 679.703 317.828C678.611 317.835 677.768 317.878 676.76 317.381L676.853 316.86C678.096 316.432 678.834 316.33 680.147 316.401C681.154 317.617 680.312 318.584 680.334 320.084C680.35 321.171 680.539 321.187 681.299 321.9C682.026 321.529 682.654 321.1 683.32 320.633C684.301 321.104 684.316 321.006 684.673 322.018C684.201 323.129 683.546 323.45 682.553 324.033C682.423 324.11 682.291 324.184 682.16 324.259L684.028 324.689L684.216 325.648C683.659 327.061 682.979 328.027 681.984 329.174L681.641 329.563C682.371 330.098 683.042 330.7 683.724 331.293C683.591 330.553 683.657 329.866 683.693 329.12C684.411 327.921 685.168 327.104 686.356 326.347C687.708 325.485 688.79 325.07 690.34 325.371Q690.458 326.381 690.6 327.387C691.795 328.061 692.441 327.994 693.779 327.811C693.943 326.595 694.072 325.709 694.716 324.652C696.352 324.407 697.423 325.482 698.796 326.33C701.637 326.604 706.308 326.016 708.821 324.539C709.784 323.973 709.806 323.811 710.037 322.792L709.423 322.161C708.63 322.751 707.909 323.267 706.907 323.419C704.561 323.775 701.721 322.272 700.005 320.793C698.832 319.783 698.207 318.9 698.098 317.386C698.957 316.735 700.062 316.897 701.091 316.895L701.673 316.898C702.552 316.115 703.059 315.357 703.658 314.344L703.882 313.96C705.513 313.749 705.954 314.715 707.456 315.094C707.287 313.583 705.889 311.982 704.862 310.928C704.775 310.838 704.685 310.75 704.596 310.661L704.767 309.923C705.592 310.708 706.334 311.652 707.508 311.829C707.934 310.829 707.824 309.983 707.752 308.931Z"/>
	<path fill="#E0242A" transform="matrix(0.275391 0 0 0.276042 -0.00012207 -3.05176e-05)" d="M670.724 450.589C649.036 438.381 621.411 423.818 614.286 397.918C612.906 392.898 610.26 381.997 612.861 377.368C615.096 383.366 616.496 389.648 619.468 395.355C628.309 412.335 647.934 426.053 665.019 433.815C672.072 437.02 679.532 438.721 686.006 443.151C680.022 444.58 675.012 445.846 670.724 450.589Z"/>
	<defs>
		<linearGradient id="gradient_3" gradientUnits="userSpaceOnUse" x1="755.87189" y1="132.06898" x2="740.40564" y2="215.45442">
			<stop offset="0" stop-color="#165BB0"/>
			<stop offset="1" stop-color="#1172B2"/>
		</linearGradient>
	</defs>
	<path fill="url(#gradient_3)" transform="matrix(0.275391 0 0 0.276042 -0.00012207 -3.05176e-05)" d="M759.035 124.517C761.442 126.638 765.184 129.801 768.529 129.896C774.109 132.323 778.704 141.177 780.855 146.529C782.569 150.793 784.327 157.534 782.428 162.001C782.172 162.603 781.824 162.998 781.381 163.469C783.299 166.071 784.293 169.637 785.429 172.642C791.39 188.404 797.727 212.897 795.527 229.762C795.409 230.668 795.164 231.322 794.722 232.114C794.796 229.98 795.012 227.563 794.675 225.458C794.394 223.707 793.916 221.685 792.436 220.656L790.9 220.988C790.485 221.581 790.065 222.187 789.574 222.721C788.917 223.438 787.96 223.745 787.004 223.743C779.498 223.732 693.983 205.238 692.643 203.798L693.077 201.659L692.406 201.415C691.77 202.082 691.391 202.538 690.498 202.848C689.791 202.666 688.974 202.385 688.249 202.335C686.514 202.215 683.163 205.452 681.749 206.632L681.046 205.807C684.933 202.696 689.983 199.371 693.098 195.52C698.828 191.672 703.943 184.404 708.513 179.15C713.411 175.184 723.851 163.165 727.714 157.913C735.967 146.694 740.847 136.646 754.524 130.961C753.726 129.689 753.698 129.767 753.969 128.299C755.229 126.537 757.204 125.605 759.035 124.517Z"/>
	<path fill="#E0242A" transform="matrix(0.275391 0 0 0.276042 -0.00012207 -3.05176e-05)" d="M759.035 124.517C761.442 126.638 765.184 129.801 768.529 129.896C774.109 132.323 778.704 141.177 780.855 146.529C782.569 150.793 784.327 157.534 782.428 162.001C782.172 162.603 781.824 162.998 781.381 163.469C777.628 156.664 773.503 149.261 768.512 143.295C765.568 139.774 759.07 131.37 754.524 130.961C753.726 129.689 753.698 129.767 753.969 128.299C755.229 126.537 757.204 125.605 759.035 124.517Z"/>
</svg>
